<svg width="322" height="143" viewBox="0 0 322 143" fill="none" xmlns="http://www.w3.org/2000/svg">
  <g clip-path="url(#clip0_74_125879)">
    <rect x="0.666748" width="320.667" height="143" rx="4" fill="#F2F2F2"/>
    <rect x="210.55" y="136.441" width="2.54813" height="1.10418" rx="0.212046" fill="#D9D9D9"/>
    <rect x="201.893" y="136.441" width="2.54813" height="1.10418" rx="0.212046" fill="#D9D9D9"/>
    <rect x="207.62" y="136.441" width="2.54813" height="1.10418" rx="0.212046" fill="#D9D9D9"/>
    <rect x="198.963" y="136.441" width="2.54813" height="1.10418" rx="0.212046" fill="#D9D9D9"/>
    <rect x="204.689" y="136.441" width="2.54813" height="1.10418" rx="0.212046" fill="#D9D9D9"/>
    <rect x="196.032" y="136.441" width="2.54813" height="1.10418" rx="0.212046" fill="#D9D9D9"/>
    <path d="M183.285 137.927L212.989 137.02C213.467 137.005 213.863 137.389 213.863 137.867V140.392C213.863 140.86 213.483 141.24 213.014 141.24H183.285V137.927Z" fill="#929292"/>
    <path d="M124.724 71.992C142.636 71.992 151 50.8692 149.654 40.6627C147.726 26.0415 137.094 22.922 124.724 22.922C112.355 22.922 104.268 31.3358 104.268 43.7057C104.268 56.0755 112.355 71.992 124.724 71.992Z" fill="black"/>
    <path d="M100.388 86.2035L104.908 59.4231V40.7134C104.908 30.3031 112.9 28.5796 123.319 28.3581C125.857 28.3011 127.754 27.4263 130.114 28.3581C132.475 29.2898 135.481 24.9616 137.296 26.7361C139.11 28.5107 140.551 30.6299 141.535 32.9693C150.499 40.7134 149.31 63.692 136.086 76.757C134.094 78.7255 130.942 78.4809 129.115 78.4806C125.358 78.48 125.519 81.7325 125.188 82.8879C123.284 89.5451 128.84 91.7112 134.594 97.0936L128.001 108.936L100.388 86.2035Z" fill="#A05735"/>
    <path d="M126.313 22.5823C121.27 22.223 112.957 22.5823 108.88 29.2586C104.803 31.4158 95.6299 35.153 98.2897 44.6315C83.7386 48.4882 72.5269 63.0125 76.9436 76.9423C66.7511 76.9423 60.6356 93.9298 76.9436 99.7055C94.0257 105.755 85.3685 99.7055 99.9523 99.7055L99.9523 86.0292C103.092 86.0292 112.727 84.5449 116.605 79.6441C121.536 73.4118 122.215 67.2594 122.215 60.5493C119.242 60.5493 121.154 58.0012 120.092 55.4531C118.818 51.0363 119.526 47.8219 122.725 48.4882C125.226 49.0094 125.763 50.7134 126.313 52.3058C126.466 52.7476 127.006 52.9575 127.376 52.6713C131.259 49.6622 147.939 36.1157 142.756 29.2586C140.3 26.0096 134.054 23.1338 126.313 22.5823Z" fill="black"/>
    <path d="M121.445 63.1396C122.355 63.1396 123.176 62.7599 123.758 62.1503C124.868 60.989 124.383 59.102 123.324 57.8944C122.693 57.1757 122.029 56.7386 121.445 56.7386C120.772 56.7386 119.888 57.355 119.173 58.2782C118.4 59.2773 118.086 60.6937 118.797 61.738C119.373 62.584 120.344 63.1396 121.445 63.1396Z" fill="#6EBBEE"/>
    <path d="M138.19 69.153C136.411 69.116 133.858 67.8896 132.677 67.2697C132.388 67.1179 132.037 67.328 132.075 67.6525C132.334 69.8879 133.758 71.4239 135.283 71.8985C136.701 72.3399 137.964 71.1463 138.672 69.8196C138.835 69.5141 138.536 69.1602 138.19 69.153Z" fill="white"/>
    <path fill-rule="evenodd" clip-rule="evenodd" d="M135.181 50.5585C134.336 51.3616 133.603 52.6201 133.226 54.1551C132.85 55.69 132.918 57.1449 133.296 58.2481C133.674 59.3518 134.337 60.0488 135.138 60.2453C135.939 60.4418 136.849 60.1304 137.695 59.3269C138.541 58.5238 139.274 57.2653 139.65 55.7303C140.027 54.1954 139.959 52.7405 139.581 51.6373C139.202 50.5336 138.54 49.8366 137.739 49.6401C136.937 49.4436 136.027 49.755 135.181 50.5585ZM134.258 49.299C135.379 48.2342 136.772 47.6564 138.143 47.9926C139.513 48.3287 140.481 49.4854 140.982 50.948C141.484 52.4112 141.546 54.2354 141.092 56.084C140.639 57.9325 139.741 59.5213 138.619 60.5864C137.498 61.6512 136.105 62.229 134.734 61.8928C133.363 61.5567 132.395 60.4 131.894 58.9374C131.392 57.4742 131.331 55.65 131.784 53.8014C132.238 51.9529 133.136 50.3641 134.258 49.299Z" fill="#EF5858"/>
    <path fill-rule="evenodd" clip-rule="evenodd" d="M134.012 50.3926C133.106 51.1809 132.333 52.4296 131.957 53.9646C131.58 55.4996 131.688 56.9641 132.126 58.0821C132.565 59.2007 133.305 59.9167 134.186 60.1326C135.066 60.3485 136.054 60.0561 136.96 59.2674C137.866 58.4792 138.639 57.2304 139.015 55.6954C139.392 54.1605 139.284 52.6959 138.846 51.5779C138.407 50.4593 137.667 49.7433 136.786 49.5274C135.906 49.3115 134.918 49.6039 134.012 50.3926ZM132.973 49.1048C134.174 48.0598 135.684 47.5105 137.19 47.8799C138.697 48.2492 139.781 49.4345 140.362 50.9168C140.944 52.3996 141.053 54.2354 140.6 56.084C140.146 57.9325 139.2 59.5097 137.999 60.5552C136.798 61.6003 135.288 62.1495 133.782 61.7801C132.275 61.4108 131.191 60.2255 130.61 58.7432C130.028 57.2604 129.919 55.4246 130.372 53.576C130.826 51.7275 131.772 50.1503 132.973 49.1048Z" fill="#EF5858"/>
    <path fill-rule="evenodd" clip-rule="evenodd" d="M145.099 52.5436C144.358 53.3406 143.667 54.5927 143.255 56.1184C142.842 57.6441 142.807 59.0733 143.046 60.1352C143.294 61.24 143.768 61.7183 144.172 61.8278C144.577 61.9372 145.228 61.7631 145.999 60.9339C146.74 60.1369 147.43 58.8848 147.843 57.3591C148.255 55.8334 148.29 54.4042 148.052 53.3423C147.804 52.2375 147.33 51.7592 146.925 51.6497C146.52 51.5402 145.87 51.7144 145.099 52.5436ZM143.856 51.3885C144.79 50.3842 146.054 49.6567 147.368 50.0122C148.682 50.3676 149.407 51.6328 149.707 52.9708C150.017 54.3518 149.95 56.0649 149.48 57.802C149.01 59.5391 148.205 61.0525 147.241 62.089C146.307 63.0933 145.044 63.8208 143.73 63.4653C142.415 63.1099 141.691 61.8447 141.39 60.5067C141.08 59.1257 141.148 57.4126 141.617 55.6755C142.087 53.9384 142.893 52.425 143.856 51.3885Z" fill="#EF5858"/>
    <path fill-rule="evenodd" clip-rule="evenodd" d="M144.459 52.5435C143.718 53.3405 143.027 54.5926 142.615 56.1183C142.202 57.644 142.167 59.0732 142.405 60.1351C142.653 61.24 143.127 61.7183 143.532 61.8277C143.937 61.9372 144.588 61.7631 145.359 60.9338C146.1 60.1368 146.79 58.8848 147.202 57.3591C147.615 55.8334 147.65 54.4041 147.412 53.3422C147.164 52.2374 146.69 51.7591 146.285 51.6496C145.88 51.5402 145.23 51.7143 144.459 52.5435ZM143.216 51.3884C144.15 50.3841 145.413 49.6567 146.728 50.0121C148.042 50.3676 148.767 51.6327 149.067 52.9707C149.377 54.3517 149.31 56.0648 148.84 57.8019C148.37 59.539 147.565 61.0524 146.601 62.0889C145.667 63.0932 144.404 63.8207 143.089 63.4653C141.775 63.1098 141.051 61.8447 140.75 60.5066C140.44 59.1256 140.507 57.4125 140.977 55.6754C141.447 53.9383 142.252 52.4249 143.216 51.3884Z" fill="#EF5858"/>
    <path fill-rule="evenodd" clip-rule="evenodd" d="M140.573 52.8477L142.917 53.1315L142.713 54.8156L140.369 54.5317L140.573 52.8477Z" fill="#EF5858"/>
    <path fill-rule="evenodd" clip-rule="evenodd" d="M123.213 48.6061C123.349 48.1578 125.402 48.4702 125.85 48.6061L132.378 50.4688C132.826 50.6047 133.079 51.0783 132.943 51.5266C132.807 51.9749 132.334 52.2281 131.886 52.0922L125.528 50.272C125.08 50.1361 125.273 49.4438 123.213 48.6061Z" fill="#EF5858"/>
    <path d="M197.715 109.247C198.64 109.247 198.594 107.448 196.626 106.342C195.193 105.537 192.703 104.116 191.219 103.374C189.628 102.843 186.252 102.337 184.857 102.234C182.903 102.416 174.785 106.255 173.028 107.862C164.937 115.262 140.521 121.769 137.061 124.577C137.579 122.021 136.047 126.587 135.917 126.923C135.786 127.259 135.745 127.624 135.797 127.981C135.849 128.338 135.993 128.675 136.215 128.96C136.436 129.245 136.728 129.467 137.061 129.606L151.966 135.761C152.135 135.831 152.313 135.878 152.495 135.903C152.834 135.946 153.178 135.906 153.497 135.785C153.817 135.664 154.102 135.467 154.327 135.21C154.444 135.079 163.009 126.768 169.523 121.961C171.358 120.607 172.616 119.414 174.997 118.429C178.178 118.429 181.216 116.594 184.374 116.84C187.893 117.115 188.568 115.263 187.19 114.082C185.812 112.901 182.814 113.861 181.217 113.11C179.026 111.113 183.267 108.868 185.706 109.523C186.554 109.523 188.992 111.855 188.992 111.855C189.222 112.067 190.401 114.798 190.583 115.778C191.123 118.688 194.094 118.563 193.461 115.41C193.068 113.453 192.406 111.325 192.207 110.901C192.009 110.477 191.443 109.533 190.851 108.868C190.851 108.868 193.975 110.159 196.202 111.431C198.428 112.704 199.064 110.477 197.715 109.247Z" fill="#A05735"/>
    <path d="M196.474 142.905H175.919C175.286 142.905 174.667 142.662 174.128 142.202C173.59 141.743 173.155 141.085 172.871 140.303C172.587 139.52 172.466 138.644 172.522 137.772C172.577 136.9 172.806 136.066 173.184 135.364L173.53 134.714C174.837 132.28 176.668 130.483 178.759 129.582C180.85 128.681 183.094 128.722 185.167 129.7L192.273 133.043C194.506 134.096 196.482 135.991 197.979 138.515C198.212 138.909 198.36 139.386 198.405 139.892C198.449 140.398 198.389 140.91 198.232 141.371C198.074 141.831 197.825 142.219 197.514 142.491C197.203 142.763 196.842 142.906 196.474 142.905Z" fill="#CCCCCC"/>
    <path d="M146.531 142.903L143.704 123.318C143.704 119.333 145.072 113.87 142.59 107.829C140.373 102.435 138.549 100.506 135.757 96.7527C135.453 96.3435 134.86 96.2887 134.456 96.6003C132.886 97.8126 130.746 98.7794 128.884 98.7752C126.712 98.7702 124.624 97.9363 123.046 96.4438C123.046 96.4438 117.08 91.5041 113.659 89.4508C107.214 85.5828 100.716 84.5522 96.0114 87.7329C91.3069 90.9136 87.4406 97.8237 91.9835 106.36C92.2338 106.828 92.4863 107.319 92.7388 107.829C97.1067 116.578 101.907 130.957 102.97 142.905L146.531 142.903Z" fill="#FFBE3C"/>
    <path d="M194.813 129.428C193.349 128.363 191.822 127.44 190.011 126.99C188.951 126.727 186.351 126.248 185.388 126.248C184.424 126.248 181.716 127.049 180.468 127.804C176.243 130.359 173.318 132.171 168.848 132.529C158.787 133.334 149.291 128.222 137.043 127.066C128.207 114.74 114.472 89.149 103.312 86.4552C97.5759 85.0707 91.8926 92.3425 91.8926 98.1766C91.8926 108.606 111.37 123.747 126.775 139.846C129.812 143.181 131.616 142.914 135.905 142.914C147.441 142.914 154.685 142.929 166.212 142.929C171.32 142.929 175.467 143.141 178.838 140.879C181.36 139.187 182.883 137.73 184.135 137.583C185.13 137.466 187.025 137.16 187.506 137.274C187.988 137.388 189.529 137.965 190.685 138.44C192.668 139.257 193.662 137.065 192.103 136.12C190.943 135.417 189.336 134.557 188.47 134.305C187.603 134.054 185.622 133.936 184.697 133.836C184.325 133.795 184.216 133.287 184.568 133.146C186.917 132.206 190.148 133.069 193.577 134.949C194.742 135.588 196.033 134.949 196.033 133.745C196.033 132.54 195.162 132.043 194.813 131.954C196.192 131.954 196.56 130.701 194.813 129.428Z" fill="#A05735"/>
    <path d="M103.295 142.905C101.827 125.223 91.113 99.4295 81.5887 89.8476C76.9373 85.174 68.485 88.5386 69.6501 95.746L77.2695 142.905H103.295Z" fill="#FFDF9E"/>
    <path fill-rule="evenodd" clip-rule="evenodd" d="M241.609 80.5125C238.986 76.1936 236.072 72.8589 232.877 70.8396L235.256 67.0754C239.248 69.598 242.596 73.5588 245.415 78.2009C248.244 82.8582 250.616 88.3269 252.602 94.0188C256.573 105.4 259.077 117.905 260.554 127.121C261.969 135.945 255.008 143.489 246.252 143.489L221.611 143.489C220.381 143.489 219.384 142.492 219.384 141.262C219.384 140.033 220.381 139.036 221.611 139.036L246.252 139.036C252.45 139.036 257.11 133.767 256.158 127.826C254.698 118.723 252.244 106.511 248.398 95.4856C246.475 89.9738 244.223 84.8161 241.609 80.5125Z" fill="#E0E0E0"/>
    <path d="M233.278 125.245C232.709 125.244 232.163 124.914 231.761 124.327C231.358 123.739 231.132 122.943 231.132 122.113V23.3857C231.132 22.5556 231.358 21.7595 231.761 21.1726C232.163 20.5857 232.709 20.2559 233.278 20.2559" fill="black"/>
    <path d="M233.278 20.256C234.108 20.2566 234.904 20.5868 235.491 21.1741C245.12 51.8008 253.953 110.238 235.491 124.328C234.904 124.915 234.108 125.245 233.278 125.245" fill="#E0E0E0"/>
  </g>
  <defs>
    <clipPath id="clip0_74_125879">
      <rect x="0.666748" width="320.667" height="143" rx="4" fill="white"/>
    </clipPath>
  </defs>
</svg>
