<svg width="258" height="286" viewBox="0 0 258 286" fill="none" xmlns="http://www.w3.org/2000/svg">
  <path d="M92.0306 121.171C93.457 122.788 95.8121 124.111 97.9634 124.035C100.115 123.958 102.147 123.026 103.613 121.446C105.079 119.866 105.859 117.765 105.781 115.607C105.703 113.449 104.773 111.41 103.197 109.939C103.036 109.782 102.849 109.628 102.679 109.482C88.0459 96.9543 72.9387 82.8196 66.6199 89.2763C57.9828 98.1022 82.872 110.786 92.0306 121.171Z" fill="#A05735"/>
  <path d="M167.96 140.828C164.866 135.474 156.421 124.522 156.45 114.613C156.479 104.704 148.404 99.4788 143.922 111.704L147.182 150.961C147.344 152.531 147.817 154.054 148.572 155.439C149.327 156.825 150.349 158.047 151.578 159.032C152.808 160.018 154.221 160.749 155.735 161.182C157.249 161.615 158.833 161.741 160.395 161.554C161.958 161.367 163.468 160.87 164.836 160.091C166.205 159.313 167.406 158.269 168.368 157.021C169.33 155.772 170.035 154.344 170.442 152.819C170.848 151.294 170.948 149.703 170.736 148.138C170.594 146.975 171.053 146.182 167.96 140.828Z" fill="#A05735"/>
  <path d="M81.8859 73.4352L84.2411 71.1463L84.3184 71.9588C84.7921 71.8032 85.2815 71.7007 85.7776 71.653L125.471 67.8772C127.382 67.7424 129.278 68.2941 130.821 69.4335C132.364 70.5729 133.453 72.2256 133.893 74.0959L155.151 172.628C155.423 173.835 155.341 175.094 154.916 176.254L155.735 176.272L153.347 178.585C152.333 179.485 151.056 180.033 149.706 180.146L110.063 183.917C108.156 184.056 106.261 183.508 104.72 182.371C103.178 181.235 102.091 179.585 101.653 177.717L80.2996 79.1939C80.0553 78.1775 80.0727 77.1157 80.3502 76.1083C80.6277 75.1009 81.1562 74.181 81.8859 73.4352Z" fill="#63B9A4"/>
  <path d="M112.372 181.673L152.03 177.9C152.911 177.84 153.768 177.587 154.54 177.158C155.313 176.729 155.982 176.135 156.5 175.418C157.018 174.701 157.372 173.878 157.538 173.009C157.704 172.139 157.678 171.243 157.46 170.384L136.202 71.8518C135.762 69.9814 134.673 68.3287 133.13 67.1893C131.587 66.0499 129.691 65.4983 127.78 65.6331L88.0516 69.4121C87.1689 69.474 86.3106 69.7293 85.5371 70.16C84.7636 70.5907 84.0938 71.1863 83.5749 71.905C83.0559 72.6237 82.7004 73.4478 82.5335 74.3194C82.3665 75.191 82.3921 76.0889 82.6085 76.9497L103.962 175.473C104.4 177.341 105.487 178.991 107.029 180.127C108.57 181.264 110.465 181.812 112.372 181.673Z" fill="#059688"/>
  <path d="M116.704 71.8842C116.672 71.7437 116.671 71.598 116.699 71.4568C116.728 71.3156 116.787 71.1823 116.871 71.0659C116.956 70.9494 117.064 70.8525 117.19 70.7817C117.315 70.7109 117.453 70.6679 117.597 70.6555C117.907 70.634 118.216 70.7241 118.466 70.9099C118.717 71.0957 118.894 71.3649 118.964 71.6692C118.996 71.8097 118.998 71.9555 118.969 72.0966C118.941 72.2378 118.882 72.3711 118.797 72.4876C118.713 72.604 118.604 72.7009 118.479 72.7717C118.354 72.8425 118.215 72.8855 118.072 72.8979C117.761 72.9195 117.453 72.8293 117.202 72.6435C116.952 72.4578 116.775 72.1886 116.704 71.8842Z" fill="white"/>
  <path d="M104.396 74.3204L114.111 73.3963C114.442 73.3648 114.748 73.2025 114.96 72.945C115.172 72.6875 115.273 72.3561 115.241 72.0235C115.21 71.6909 115.048 71.3845 114.791 71.1717C114.534 70.9588 114.204 70.8569 113.872 70.8885L104.157 71.8126C103.826 71.8441 103.521 72.0064 103.309 72.2639C103.097 72.5214 102.995 72.8528 103.027 73.1854C103.058 73.518 103.22 73.8244 103.477 74.0372C103.734 74.2501 104.065 74.352 104.396 74.3204Z" fill="white"/>
  <path d="M106.929 168.497C111.996 162.191 94.0942 145.002 85.8314 149.594C81.9171 151.77 82.771 157.957 85.903 161.061C89.6389 164.73 100.564 176.419 106.929 168.497Z" fill="#A05735"/>
  <path d="M83.9508 145.679C89.0414 149.674 102.261 163.09 106.502 154.619C110.539 146.556 99.2866 138.061 94.5226 133.453C92.9757 131.96 90.9015 131.145 88.7563 131.186C86.6111 131.228 84.5706 132.122 83.0837 133.673C81.5968 135.224 80.7853 137.304 80.8278 139.456C80.8702 141.608 81.7631 143.655 83.31 145.148C83.5162 145.3 83.7377 145.507 83.9508 145.679Z" fill="#A05735"/>
  <path d="M81.7857 129.138C86.9761 133.213 99.5606 146.276 104.345 138.093C109.294 129.629 97.1394 121.531 92.3784 116.92C90.8248 115.483 88.7729 114.713 86.6615 114.775C84.5502 114.836 82.5471 115.723 81.0806 117.248C79.6141 118.772 78.8006 120.811 78.8141 122.93C78.8276 125.049 79.6671 127.079 81.153 128.586C81.3533 128.781 81.5645 128.966 81.7857 129.138Z" fill="#A05735"/>
  <path d="M137.982 181.267C137.982 181.267 122.378 182.773 112.232 183.655C127.656 197.653 134.534 198.94 145.505 207.671C154.331 214.695 156.358 218.528 162.297 225.421C163.805 227.171 165.51 228.359 168.109 227.048C179.191 221.46 187.622 216.316 194.807 202.634C195.191 199.896 193.866 199.158 191.584 197.597C187.976 195.13 181.095 187.316 177.924 177.014C175.153 168.015 175.506 154.122 168.45 141.716C168.236 141.339 167.895 140.756 167.895 140.756L167.155 141.576C167.123 141.609 164.193 144.854 160.536 149.691C158.551 148.345 156.368 147.319 154.067 146.652L153.456 146.492L153.154 147.027C153.073 147.177 145.229 161.886 142.565 177.055C142.365 178.163 141.809 179.175 140.981 179.936C140.153 180.696 139.1 181.164 137.982 181.267Z" fill="#A05735"/>
  <circle cx="193.06" cy="108.788" r="18.1872" fill="#FFE8E4"/>
  <path fill-rule="evenodd" clip-rule="evenodd" d="M184.415 101.052C183.376 101.052 182.533 101.895 182.533 102.934V103.665C182.552 103.725 182.573 103.785 182.597 103.844C182.747 104.204 183.057 104.622 183.834 104.982L192.18 108.65C192.626 108.846 193.133 108.845 193.579 108.648L201.844 104.988C202.918 104.453 203.359 104.017 203.559 103.69C203.621 103.587 203.668 103.484 203.702 103.371V102.934C203.702 101.895 202.86 101.052 201.821 101.052H184.415ZM203.702 106.047C203.393 106.252 203.042 106.451 202.645 106.647L202.627 106.656L193.748 110.588C193.197 110.832 192.568 110.833 192.016 110.59L183.078 106.662L183.071 106.659C182.878 106.57 182.7 106.476 182.533 106.376V114.61C182.533 115.65 183.376 116.492 184.415 116.492H201.821C202.86 116.492 203.702 115.65 203.702 114.61V106.047Z" fill="#EF5858"/>
  <path d="M221.437 35.0214C221.437 17.5575 207.28 3.40029 189.816 3.40029C172.352 3.4003 158.195 17.5576 158.195 35.0215L158.195 66.6425L189.816 66.6425C207.28 66.6425 221.437 52.4852 221.437 35.0214Z" fill="#FCECCB"/>
  <path d="M204.311 30.0584C201.569 30.0584 199.347 32.2801 199.347 35.0217C199.347 37.7634 201.569 39.9851 204.311 39.9851C207.052 39.9851 209.274 37.7634 209.274 35.0217C209.274 32.2801 207.052 30.0584 204.311 30.0584Z" fill="#FFBE3C"/>
  <path d="M189.566 30.0584C186.825 30.0584 184.603 32.2801 184.603 35.0217C184.603 37.7634 186.825 39.9851 189.566 39.9851C192.308 39.9851 194.53 37.7634 194.53 35.0217C194.53 32.2801 192.308 30.0584 189.566 30.0584Z" fill="#FFBE3C"/>
  <path d="M175.318 30.0584C172.577 30.0584 170.355 32.2801 170.355 35.0217C170.355 37.7634 172.577 39.9851 175.318 39.9851C178.06 39.9851 180.282 37.7634 180.282 35.0217C180.282 32.2801 178.06 30.0584 175.318 30.0584Z" fill="#FFBE3C"/>
  <circle cx="114.007" cy="22.919" r="21.9046" fill="#DCEDE1"/>
  <path fill-rule="evenodd" clip-rule="evenodd" d="M103.811 14.8219C102.132 14.8219 100.771 16.0319 100.771 17.5245V28.2724C100.771 29.765 102.132 30.975 103.811 30.975H115.97C117.649 30.975 119.01 29.765 119.01 28.2724V17.5245C119.01 16.0319 117.649 14.8219 115.97 14.8219H103.811ZM104.894 20.0345C105.693 20.0345 106.341 19.4587 106.341 18.7483C106.341 18.038 105.693 17.4621 104.894 17.4621C104.095 17.4621 103.448 18.038 103.448 18.7483C103.448 19.4587 104.095 20.0345 104.894 20.0345ZM109.295 20.0345C110.094 20.0345 110.742 19.4587 110.742 18.7483C110.742 18.038 110.094 17.4621 109.295 17.4621C108.496 17.4621 107.848 18.038 107.848 18.7483C107.848 19.4587 108.496 20.0345 109.295 20.0345Z" fill="#059688"/>
  <path d="M127.326 16.3337C127.82 16.5702 128.128 17.0263 128.128 17.5245V28.3349C128.128 28.8332 127.82 29.2893 127.326 29.5258C126.832 29.7622 126.233 29.7369 125.763 29.4582L121.318 26.8237V19.0358L125.763 16.4013C126.229 16.1268 126.827 16.0972 127.326 16.3337Z" fill="#059688"/>
  <path d="M40.7908 21.8609C27.8124 21.8609 17.2913 32.3821 17.2913 45.3605C17.2913 58.339 27.8124 68.8602 40.7909 68.8602L64.2904 68.8602L64.2904 45.3605C64.2904 32.382 53.7693 21.8609 40.7908 21.8609Z" fill="#DEF2FF"/>
  <path fill-rule="evenodd" clip-rule="evenodd" d="M33.9722 54.0798C32.8402 54.0798 31.9226 53.1622 31.9226 52.0302L31.9226 39.8047C31.9226 38.6727 32.8402 37.7551 33.9722 37.7551C35.1041 37.7551 36.0218 38.6727 36.0218 39.8047L36.0218 52.0302C36.0218 53.1622 35.1041 54.0798 33.9722 54.0798Z" fill="#6EBBEE"/>
  <path fill-rule="evenodd" clip-rule="evenodd" d="M47.606 54.0798C46.474 54.0798 45.5564 53.1622 45.5564 52.0303L45.5564 39.8047C45.5564 38.6727 46.474 37.7551 47.606 37.7551C48.7379 37.7551 49.6556 38.6727 49.6556 39.8047L49.6556 52.0303C49.6556 53.1622 48.7379 54.0798 47.606 54.0798Z" fill="#6EBBEE"/>
  <path fill-rule="evenodd" clip-rule="evenodd" d="M27.2146 50.7817C26.0827 50.7817 25.165 49.8641 25.165 48.7321L25.165 43.1024C25.165 41.9705 26.0827 41.0528 27.2146 41.0528C28.3466 41.0528 29.2642 41.9705 29.2642 43.1024L29.2642 48.7321C29.2642 49.8641 28.3466 50.7817 27.2146 50.7817Z" fill="#6EBBEE"/>
  <path fill-rule="evenodd" clip-rule="evenodd" d="M54.364 50.7817C53.2321 50.7817 52.3145 49.8641 52.3145 48.7321L52.3145 43.1024C52.3145 41.9705 53.2321 41.0528 54.364 41.0528C55.496 41.0528 56.4136 41.9705 56.4136 43.1024L56.4136 48.7321C56.4136 49.8641 55.496 50.7817 54.364 50.7817Z" fill="#6EBBEE"/>
  <path fill-rule="evenodd" clip-rule="evenodd" d="M40.8478 57.8064C39.7159 57.8156 38.7938 56.9054 38.7881 55.7735L38.6903 36.1275C38.6846 34.9956 39.5977 34.0705 40.7296 34.0613C41.8615 34.0521 42.7837 34.9622 42.7893 36.0942L42.8872 55.7401C42.8928 56.8721 41.9798 57.7971 40.8478 57.8064Z" fill="#6EBBEE"/>
  <path d="M0.899414 125.57C0.899414 138.548 11.4206 149.069 24.399 149.069C37.3775 149.069 47.8987 138.548 47.8987 125.57V102.07H24.399C11.4205 102.07 0.899414 112.591 0.899414 125.57Z" fill="#DCEDE1"/>
  <path d="M17.0224 113.381L14.0866 114.182C12.4542 114.627 11.9169 115.519 11.9783 117.105C12.4201 128.512 21.6357 137.67 33.0659 138.02C34.6011 138.067 35.3987 137.417 35.7818 136.012L36.6052 132.993C37.053 131.352 36.547 130.382 35.0589 129.761L31.6151 128.327C30.1545 127.718 29.2374 128.027 28.2945 129.178L27.549 130.088C27.0957 130.641 26.3199 130.821 25.698 130.468C23.1249 129.007 20.9866 126.869 19.5254 124.296C19.1718 123.673 19.3528 122.897 19.9071 122.444L20.8963 121.635C22.0865 120.662 22.2134 119.696 21.661 118.37L20.1839 114.825C19.5686 113.349 18.7505 112.91 17.0224 113.381Z" fill="#059688"/>
</svg>
