<svg width="290" height="240" viewBox="0 0 290 240" fill="none" xmlns="http://www.w3.org/2000/svg">
  <g clip-path="url(#clip0_6090_186930)">
    <path d="M247.177 83.2438C247.186 92.1693 245.628 101.028 242.571 109.417L277.947 103.443C279.746 96.8595 280.654 90.0666 280.649 83.2438C280.649 75.7657 247.177 77.4699 247.177 83.2438Z" fill="#272727"/>
    <path d="M285.701 87.0676L279.357 60.9708C278.755 58.488 277.668 56.1477 276.158 54.0837C274.648 52.0198 272.744 50.2725 270.556 48.9417C268.369 47.6109 265.939 46.7227 263.406 46.3278C260.874 45.9329 258.288 46.0391 255.797 46.6402V46.6402C248.797 48.3296 242.758 52.7202 239.006 58.8463C235.254 64.9724 234.098 72.3325 235.791 79.308L240.663 97.4544C241.409 100.232 243.016 102.705 245.255 104.52C247.493 106.335 250.25 107.399 253.131 107.562V107.562C254.762 107.652 256.316 108.28 257.55 109.346C258.784 110.413 259.628 111.858 259.948 113.454L263.191 129.567L280.609 125.616L275.135 103.087L276.393 103.677C283.937 101.863 287.527 94.5871 285.701 87.0676Z" fill="#FFE1CC"/>
    <path d="M236.524 152.122L203.832 127.026C202.45 125.971 201.384 124.559 200.749 122.943L198.476 117.134C196.242 111.448 189.8 107.719 184.152 108.9L165.588 112.777C163.759 113.16 164.008 115.843 165.878 115.819H183.242L181.371 124.649H175.579C172.617 124.649 172.419 128.215 175.113 128.65C176.126 128.813 179.853 128.345 181.818 128.953C185.43 130.071 187.272 132.6 192.518 134.463C192.68 134.52 192.887 134.607 193.128 134.715C195.673 135.863 197.961 137.507 199.858 139.55L226.79 172.313L236.524 152.122Z" fill="#FFE1CC"/>
    <path d="M197.008 83.9073L197.006 83.9085C195.511 85.0289 195.211 87.1448 196.335 88.6344L223.859 125.097C224.984 126.587 227.107 126.886 228.602 125.766L228.603 125.765C230.098 124.644 230.399 122.528 229.274 121.039L201.75 84.5757C200.626 83.0861 198.503 82.7868 197.008 83.9073Z" fill="#272727"/>
    <path d="M224.268 184.04L197.656 231.522L151.189 144.069C144.19 130.278 162.391 117.649 172.943 128.973L224.268 184.04Z" fill="#FFE1CC"/>
    <path d="M178.227 194.956L195.828 231.522L122.745 231.823C107.242 231.471 122.427 203.444 137.422 199.51L178.227 194.956Z" fill="#FFE1CC"/>
    <path d="M271.043 195.832C271.11 195.635 271.655 195.123 271.72 194.92L279.966 169.129C284.903 153.663 284.212 137.065 279.61 121.007C278.998 118.869 277.469 112.379 277.469 112.379C277.469 112.379 272.404 113.147 265.559 114.333C251.371 116.793 238.43 134.473 234.427 145.999C231.605 154.117 225.668 170.296 225.668 170.296L271.043 195.832Z" fill="#007171"/>
    <path d="M123.504 64.7224C124.376 64.5074 125.298 64.6463 126.068 65.1087C126.837 65.571 127.39 66.3189 127.606 67.1878L139.725 115.989L136.438 116.799C135.566 117.014 134.644 116.875 133.876 116.412C133.107 115.95 132.554 115.202 132.338 114.334L121.032 68.8089C120.816 67.94 120.956 67.0213 121.42 66.2548C121.884 65.4884 122.634 64.937 123.506 64.7219L123.504 64.7224Z" fill="#272727"/>
    <path d="M186.595 115.819H139.498C137.052 115.819 135.068 117.795 135.068 120.233V120.235C135.068 122.673 137.052 124.649 139.498 124.649H186.595C189.041 124.649 191.025 122.673 191.025 120.235V120.233C191.025 117.795 189.041 115.819 186.595 115.819Z" fill="#272727"/>
    <path d="M98.1064 222.773L129.363 218.601L174.712 150.016L151.355 131.541L98.1064 222.773Z" fill="#FFE1CC"/>
    <path d="M26.6353 212.022L50.5294 231.798L122.745 231.823L145.707 198.585L26.6353 212.022Z" fill="#FFE1CC"/>
    <path d="M74.1609 206.659L24.9053 212.028L50.5294 231.798L80.4074 231.807L74.1609 206.659Z" fill="white"/>
    <path d="M123.835 178.691L98.1064 222.773L129.363 218.601L158.38 174.718L123.835 178.691Z" fill="white"/>
    <path d="M277.637 182.843C271.499 205.892 260.08 223.959 247.763 236.8C241.718 243.098 254.018 211.53 261.574 177.412C268.616 145.616 271.175 112.983 274.533 112.97C274.829 112.97 277.402 112.35 277.598 112.873C284.34 130.901 284.778 156.071 277.637 182.843Z" fill="#007171"/>
    <path d="M57.246 231.823H11.0988L0.325831 188.845C-2.34224 178.195 12.108 172.132 17.8865 181.477L26.0843 194.735C28.1242 198.032 31.0217 200.716 34.4691 202.504C37.9166 204.292 41.7855 205.116 45.6652 204.89V204.89C47.1226 204.805 48.5632 205.236 49.7327 206.107C50.9023 206.978 51.7258 208.232 52.0579 209.648L57.246 231.823Z" fill="#12364C"/>
    <path d="M144.058 201.393L122.719 239.319L73.679 239.75C61.6065 239.856 59.0885 222.826 70.6791 219.453L93.4417 212.841C97.2653 211.73 100.756 209.698 103.604 206.925L106.567 204.034C107.538 203.089 108.798 202.494 110.147 202.342L142.277 198.728C142.607 198.69 142.941 198.743 143.243 198.882C143.545 199.022 143.802 199.241 143.987 199.517C144.171 199.793 144.275 200.114 144.288 200.445C144.3 200.776 144.221 201.104 144.058 201.393V201.393Z" fill="#12364C"/>
    <path d="M3.27831 179.291C0.768233 181.42 -0.687257 184.801 0.325859 188.845L11.0989 231.823H16.3284L3.27831 179.291Z" fill="#A8D7E2"/>
    <path d="M34.6711 228.007C37.9323 228.007 40.576 225.373 40.576 222.123C40.576 218.873 37.9323 216.239 34.6711 216.239C31.4099 216.239 28.7662 218.873 28.7662 222.123C28.7662 225.373 31.4099 228.007 34.6711 228.007Z" fill="#A8D7E2"/>
    <path d="M125.696 220.224C128.957 220.224 131.6 217.59 131.6 214.34C131.6 211.09 128.957 208.456 125.696 208.456C122.434 208.456 119.791 211.09 119.791 214.34C119.791 217.59 122.434 220.224 125.696 220.224Z" fill="#A8D7E2"/>
    <path d="M63.4886 231.823C64.4109 236.218 67.9795 240.051 73.7086 240L122.597 239.569L126.942 231.823H63.4886Z" fill="#A8D7E2"/>
    <path d="M274.195 112.893C271.264 118.427 268.57 148.036 262.217 176.719C254.659 210.839 242.893 243.778 248.94 237.475C261.258 224.634 272.143 205.201 278.281 182.152C285.24 156.02 284.828 130.96 278.536 113.011C278.457 112.789 278.302 112.602 278.098 112.483C277.894 112.364 277.655 112.32 277.422 112.359L274.195 112.893Z" fill="#007171"/>
    <path d="M226.322 166.063C226.322 166.063 223.47 172.734 222.546 174.159C221.013 176.52 217.921 177.223 215.997 175.157L199.572 157.445L152.917 239.599L244.57 239.98C247.157 239.98 249.795 236.552 250.98 235.234L273.604 196.743L226.322 166.063Z" fill="#0A273D"/>
    <path d="M280.566 172.313C285.041 149.803 284.034 128.693 278.536 113.011C278.457 112.789 278.302 112.602 278.098 112.483C277.894 112.364 277.655 112.32 277.422 112.359L274.195 112.893C271.815 117.387 269.592 137.758 265.436 160.615L280.566 172.313Z" fill="#007171"/>
    <path d="M259.212 189.454C251.983 218.5 243.653 242.982 248.942 237.471C258.564 227.435 267.309 213.386 273.606 196.735L259.212 189.454Z" fill="#0A273D"/>
    <path d="M225.437 127.298L225.698 121.239C225.75 120.015 225.745 118.79 225.682 117.565L224.892 102.288C224.77 99.926 221.4 99.5698 220.79 101.862L217.433 113.332C217.367 113.552 217.24 113.751 217.068 113.904C216.896 114.058 216.684 114.161 216.456 114.201C216.229 114.242 215.994 114.219 215.779 114.135C215.564 114.051 215.376 113.909 215.237 113.725L200.593 94.3725C199.141 92.4518 196.155 94.2879 197.236 96.4427L215.798 133.82C216.594 135.422 217.241 137.094 217.729 138.814L226.717 179.399C229.62 189.898 243.306 192.6 250.001 184C250.001 184 232.985 146.777 227.135 134.068C226.253 132.155 225.346 129.4 225.437 127.298Z" fill="#FFE1CC"/>
    <path d="M234.19 168.597L249.979 184.034L267.786 156.797L247.502 144.586L234.19 168.597Z" fill="#FFE1CC"/>
    <path d="M286.913 64.4676V64.4558C286.741 63.8654 286.587 63.275 286.38 62.7102C282.825 52.8273 272.783 46.0989 261.599 46.0989C260.665 46.0993 259.732 46.1485 258.803 46.2465V46.2465H258.751C255.626 46.5774 252.585 47.4617 249.772 48.8579V48.8579C246.019 50.4579 241.872 52.9906 239.076 56.9796C232.742 65.9967 235.732 78.9733 235.732 78.9733C235.732 78.9733 248.129 77.4363 254.673 69.1828C255.285 71.9154 255.747 74.6792 256.056 77.4619C256.81 77.2888 257.593 77.2832 258.349 77.4453C259.105 77.6075 259.817 77.9336 260.432 78.4004C261.048 78.8671 261.553 79.4632 261.912 80.1463C262.27 80.8294 262.474 81.5828 262.508 82.353C262.541 83.1232 262.405 83.8914 262.107 84.603C261.809 85.3147 261.358 85.9524 260.786 86.4708C260.213 86.9893 259.533 87.3759 258.794 87.6031C258.055 87.8304 257.274 87.8927 256.508 87.7857C256.325 96.1145 254.777 104.357 251.924 112.188L286.605 106.213C288.367 99.7783 290.002 93.0067 290.002 86.0146C290.006 78.7224 288.966 71.4669 286.913 64.4676Z" fill="#272727"/>
    <path d="M194.005 50.6783C206.266 50.6783 216.206 40.7732 216.206 28.5547C216.206 16.3362 206.266 6.43115 194.005 6.43115C181.743 6.43115 171.803 16.3362 171.803 28.5547C171.803 40.7732 181.743 50.6783 194.005 50.6783Z" fill="#F2F2F2"/>
    <path d="M194.35 56.3559C194.346 56.2525 194.362 56.1493 194.398 56.0522C194.434 55.9551 194.489 55.8659 194.559 55.7899C194.63 55.7139 194.714 55.6524 194.809 55.6091C194.903 55.5657 195.005 55.5413 195.109 55.5373C195.213 55.533 195.316 55.5492 195.414 55.5849C195.511 55.6207 195.6 55.6752 195.677 55.7454C195.753 55.8155 195.815 55.9 195.858 55.994C195.902 56.088 195.926 56.1895 195.93 56.2929V56.2929C195.938 56.5014 195.863 56.7046 195.721 56.8577C195.579 57.0108 195.381 57.1014 195.172 57.1096H195.14C194.937 57.1098 194.741 57.0315 194.593 56.891C194.446 56.7506 194.359 56.5588 194.35 56.3559V56.3559ZM190.316 56.8991C190.213 56.886 190.113 56.8527 190.023 56.8013C189.933 56.7499 189.854 56.6813 189.791 56.5994C189.727 56.5175 189.681 56.424 189.653 56.3241C189.626 56.2243 189.619 56.12 189.632 56.0174C189.659 55.8105 189.767 55.6226 189.932 55.495C190.098 55.3673 190.308 55.3103 190.515 55.3365V55.3365C190.618 55.3496 190.718 55.3829 190.808 55.4343C190.898 55.4857 190.977 55.5543 191.04 55.6362C191.104 55.7181 191.15 55.8116 191.178 55.9115C191.205 56.0113 191.212 56.1156 191.199 56.2182C191.173 56.4087 191.079 56.5836 190.934 56.7097C190.788 56.8359 190.601 56.9046 190.409 56.903L190.316 56.8991ZM199.061 55.9013C199.017 55.6973 199.057 55.4844 199.171 55.3095C199.285 55.1346 199.464 55.012 199.669 54.9685C199.874 54.9254 200.087 54.9649 200.263 55.0786C200.438 55.1922 200.561 55.3706 200.605 55.5746C200.648 55.7787 200.608 55.9916 200.494 56.1664C200.38 56.3413 200.201 56.464 199.997 56.5074C199.942 56.5192 199.886 56.5251 199.831 56.5252C199.651 56.5228 199.478 56.4597 199.34 56.3464C199.201 56.233 199.106 56.0761 199.068 55.9013H199.061ZM185.56 55.8757C185.36 55.8141 185.193 55.6758 185.095 55.4913C184.997 55.3068 184.977 55.0911 185.039 54.8918V54.8918C185.069 54.7929 185.119 54.701 185.185 54.6212C185.251 54.5415 185.332 54.4756 185.424 54.4271C185.516 54.3787 185.616 54.3487 185.72 54.339C185.823 54.3292 185.927 54.3399 186.026 54.3703C186.226 54.4319 186.394 54.5702 186.491 54.7547C186.589 54.9392 186.609 55.1549 186.548 55.3542V55.3542C186.498 55.5149 186.398 55.6555 186.262 55.7553C186.126 55.8552 185.962 55.9091 185.793 55.9092C185.714 55.9095 185.636 55.8983 185.56 55.8757V55.8757ZM203.626 54.6596C203.588 54.5635 203.569 54.4609 203.57 54.3575C203.571 54.2541 203.593 54.152 203.634 54.057C203.675 53.9619 203.734 53.8759 203.808 53.8037C203.883 53.7315 203.97 53.6746 204.067 53.6362V53.6362C204.163 53.5978 204.266 53.5787 204.37 53.58C204.474 53.5813 204.576 53.6029 204.672 53.6436C204.767 53.6844 204.853 53.7435 204.926 53.8175C204.998 53.8915 205.055 53.9791 205.094 54.0751V54.0751C205.132 54.1711 205.152 54.2737 205.15 54.3771C205.149 54.4805 205.127 54.5826 205.086 54.6777C205.045 54.7727 204.986 54.8588 204.912 54.9309C204.838 55.0031 204.75 55.06 204.653 55.0984V55.0984C204.561 55.1362 204.461 55.1556 204.361 55.1555V55.1555C204.203 55.1556 204.048 55.1084 203.917 55.02C203.786 54.9316 203.685 54.806 203.626 54.6596V54.6596ZM181.052 54.0593C180.959 54.0126 180.876 53.9481 180.809 53.8696C180.741 53.7911 180.69 53.7001 180.657 53.6018C180.625 53.5034 180.613 53.3997 180.621 53.2966C180.629 53.1934 180.657 53.0928 180.704 53.0006C180.751 52.9083 180.816 52.8261 180.894 52.7587C180.973 52.6913 181.064 52.6401 181.163 52.6079C181.262 52.5758 181.366 52.5633 181.469 52.5712C181.573 52.5792 181.674 52.6074 181.766 52.6542V52.6542C181.859 52.7011 181.941 52.7657 182.009 52.8443C182.076 52.9229 182.127 53.0139 182.159 53.1123C182.191 53.2106 182.204 53.3142 182.196 53.4173C182.188 53.5204 182.159 53.6208 182.112 53.713C182.046 53.8427 181.945 53.9517 181.821 54.0278C181.696 54.1038 181.553 54.1441 181.407 54.144V54.144C181.284 54.1438 181.162 54.1148 181.052 54.0593V54.0593ZM207.91 52.6621C207.855 52.574 207.819 52.476 207.802 52.3738C207.786 52.2716 207.79 52.1672 207.814 52.0664C207.838 51.9657 207.881 51.8707 207.942 51.7869C208.003 51.703 208.08 51.6319 208.169 51.5778C208.257 51.5234 208.355 51.4869 208.458 51.4704C208.561 51.4539 208.665 51.4578 208.766 51.4817C208.868 51.5057 208.963 51.5492 209.047 51.61C209.131 51.6707 209.202 51.7473 209.257 51.8356V51.8356C209.366 52.0135 209.4 52.2276 209.351 52.4305C209.303 52.6335 209.175 52.8088 208.996 52.9179V52.9179C208.872 52.9938 208.729 53.034 208.583 53.034C208.449 53.0338 208.317 52.9995 208.2 52.9344C208.083 52.8693 207.985 52.7756 207.914 52.6621H207.91ZM176.904 51.5089C176.737 51.3842 176.625 51.1984 176.595 50.9922C176.565 50.786 176.618 50.5762 176.742 50.4088C176.867 50.2414 177.053 50.1302 177.26 50.0996C177.467 50.069 177.678 50.1214 177.846 50.2455C177.93 50.3071 178.001 50.3845 178.054 50.4734C178.108 50.5624 178.143 50.6609 178.159 50.7635C178.174 50.8661 178.169 50.9707 178.143 51.0712C178.118 51.1718 178.072 51.2664 178.01 51.3495V51.3495C177.936 51.4478 177.84 51.5274 177.73 51.5821C177.619 51.6368 177.498 51.665 177.374 51.6643V51.6643C177.209 51.6616 177.049 51.6072 176.916 51.5089H176.904ZM211.787 49.9719C211.718 49.8941 211.665 49.8035 211.631 49.7054C211.598 49.6072 211.584 49.5034 211.591 49.3999C211.598 49.2963 211.625 49.1952 211.671 49.1022C211.717 49.0092 211.781 48.9263 211.86 48.8581V48.8581C211.938 48.7897 212.029 48.7374 212.127 48.7041C212.225 48.6708 212.329 48.6571 212.433 48.6639C212.536 48.6707 212.638 48.6977 212.731 48.7435C212.824 48.7893 212.907 48.853 212.976 48.9309V48.9309C213.113 49.0878 213.183 49.2928 213.169 49.5009C213.156 49.709 213.06 49.9032 212.902 50.0408V50.0408C212.758 50.1674 212.573 50.2373 212.381 50.2376V50.2376C212.271 50.2363 212.162 50.212 212.062 50.1663C211.961 50.1205 211.872 50.0543 211.799 49.9719H211.787ZM173.261 48.3011C173.116 48.1505 173.037 47.9488 173.042 47.7403C173.046 47.5319 173.133 47.3337 173.284 47.1893C173.359 47.1176 173.448 47.0614 173.544 47.0238C173.641 46.9862 173.744 46.9679 173.848 46.9701C173.952 46.9723 174.054 46.9949 174.149 47.0365C174.244 47.0782 174.33 47.1381 174.402 47.2129V47.2129C174.474 47.2876 174.53 47.3758 174.568 47.4723C174.605 47.5687 174.623 47.6716 174.621 47.7751C174.619 47.8786 174.596 47.9805 174.554 48.0752C174.512 48.1698 174.452 48.2553 174.376 48.3267C174.23 48.4667 174.034 48.5449 173.831 48.5452C173.727 48.5434 173.623 48.521 173.527 48.4791C173.431 48.4372 173.345 48.3767 173.272 48.3011H173.261ZM215.164 46.6658C215.083 46.6007 215.016 46.5204 214.966 46.4295C214.917 46.3385 214.886 46.2388 214.875 46.1359C214.864 46.033 214.874 45.929 214.903 45.8298C214.933 45.7306 214.982 45.6382 215.047 45.5578V45.5578C215.113 45.4777 215.194 45.4112 215.285 45.3622C215.376 45.3132 215.477 45.2826 215.58 45.2722C215.683 45.2618 215.787 45.2717 215.887 45.3015C215.986 45.3313 216.079 45.3802 216.159 45.4457C216.321 45.5773 216.423 45.7673 216.445 45.9741C216.466 46.181 216.405 46.3879 216.274 46.5497V46.5497C216.199 46.6407 216.106 46.7142 216 46.7645C215.893 46.8149 215.777 46.841 215.659 46.8409C215.483 46.838 215.313 46.7764 215.176 46.6658H215.164ZM170.219 44.5286C170.102 44.3558 170.059 44.1437 170.098 43.9389C170.138 43.7342 170.257 43.5534 170.431 43.4364C170.517 43.3783 170.613 43.3376 170.715 43.3168C170.817 43.2959 170.921 43.2952 171.023 43.3148C171.125 43.3343 171.223 43.3737 171.309 43.4307C171.396 43.4877 171.47 43.5612 171.529 43.647V43.647C171.587 43.7327 171.628 43.8291 171.648 43.9305C171.669 44.032 171.67 44.1365 171.65 44.2381C171.63 44.3398 171.59 44.4365 171.533 44.5228C171.475 44.6092 171.402 44.6833 171.315 44.7411V44.7411C171.185 44.8283 171.032 44.8749 170.875 44.875C170.746 44.8752 170.618 44.8437 170.504 44.7833C170.389 44.7229 170.292 44.6354 170.219 44.5286ZM217.944 42.8421C217.762 42.7399 217.628 42.5698 217.571 42.3691C217.514 42.1684 217.54 41.9535 217.642 41.7715V41.7715C217.693 41.6813 217.761 41.6019 217.843 41.5379C217.924 41.4739 218.018 41.4266 218.118 41.3986C218.218 41.3707 218.322 41.3626 218.425 41.3749C218.528 41.3873 218.628 41.4197 218.719 41.4704V41.4704C218.809 41.521 218.889 41.5889 218.953 41.6702C219.017 41.7515 219.065 41.8447 219.093 41.9443C219.121 42.0439 219.129 42.148 219.117 42.2508C219.104 42.3535 219.072 42.4528 219.021 42.5429V42.5429C218.951 42.6634 218.85 42.7632 218.729 42.8324C218.608 42.9015 218.471 42.9374 218.331 42.9365V42.9365C218.196 42.9385 218.063 42.906 217.944 42.8421V42.8421ZM167.847 40.2956C167.805 40.2013 167.781 40.0994 167.777 39.9959C167.774 39.8924 167.791 39.7893 167.828 39.6924C167.864 39.5955 167.92 39.5068 167.991 39.4313C168.062 39.3558 168.148 39.2951 168.242 39.2526C168.337 39.2098 168.439 39.186 168.543 39.1826C168.647 39.1793 168.751 39.1963 168.848 39.2329C168.945 39.2695 169.034 39.3248 169.11 39.3957C169.185 39.4666 169.246 39.5517 169.289 39.6461C169.375 39.8364 169.382 40.0529 169.308 40.2482C169.234 40.4434 169.085 40.6013 168.894 40.6872C168.792 40.7327 168.682 40.7562 168.57 40.7561C168.418 40.7568 168.269 40.7138 168.141 40.6321C168.012 40.5504 167.911 40.4335 167.847 40.2956V40.2956ZM220.026 38.611C219.928 38.5766 219.838 38.5233 219.76 38.4541C219.683 38.3849 219.62 38.3012 219.576 38.2078C219.531 38.1144 219.505 38.0131 219.5 37.9097C219.494 37.8064 219.509 37.7029 219.544 37.6054C219.579 37.5077 219.632 37.4178 219.702 37.3409C219.772 37.264 219.856 37.2015 219.95 37.1571C220.044 37.1126 220.146 37.0871 220.25 37.082C220.353 37.0769 220.457 37.0922 220.555 37.1272V37.1272C220.752 37.1975 220.913 37.3429 221.003 37.5314C221.093 37.72 221.103 37.9363 221.033 38.1328V38.1328C220.978 38.286 220.878 38.4186 220.744 38.5123C220.611 38.606 220.452 38.6563 220.289 38.6563C220.199 38.6566 220.11 38.6413 220.026 38.611ZM166.234 35.7201C166.182 35.5181 166.212 35.3038 166.318 35.1241C166.425 34.9444 166.598 34.814 166.801 34.7617C167.003 34.7097 167.219 34.7399 167.399 34.8458C167.579 34.9517 167.71 35.1246 167.763 35.3265C167.815 35.5285 167.784 35.7429 167.678 35.9226C167.572 36.1023 167.398 36.2326 167.196 36.2849C167.131 36.3019 167.065 36.3105 166.998 36.3105V36.3105C166.823 36.3104 166.653 36.2523 166.515 36.1454C166.377 36.0386 166.278 35.889 166.234 35.7201V35.7201ZM221.353 34.0867C221.147 34.0511 220.963 33.9354 220.842 33.7649C220.722 33.5944 220.674 33.3832 220.709 33.1775V33.1775C220.727 33.0755 220.765 32.978 220.82 32.8905C220.876 32.8031 220.948 32.7274 221.033 32.6678C221.118 32.6082 221.214 32.5659 221.315 32.5433C221.416 32.5206 221.521 32.5182 221.624 32.536V32.536C221.83 32.5716 222.014 32.6873 222.134 32.8578C222.255 33.0283 222.303 33.2395 222.267 33.4452V33.4452C222.236 33.628 222.14 33.7938 221.998 33.9133C221.856 34.0328 221.675 34.0984 221.489 34.0985C221.444 34.0983 221.398 34.0944 221.353 34.0867V34.0867ZM165.422 30.938C165.414 30.8349 165.425 30.7311 165.457 30.6325C165.489 30.5339 165.54 30.4425 165.607 30.3636C165.674 30.2846 165.756 30.2196 165.848 30.1723C165.941 30.125 166.042 30.0963 166.145 30.0879V30.0879C166.354 30.071 166.561 30.1374 166.72 30.2724C166.88 30.4075 166.979 30.6002 166.996 30.8081V30.8081C167.005 30.9113 166.993 31.0151 166.961 31.1137C166.93 31.2122 166.879 31.3036 166.812 31.3826C166.745 31.4615 166.663 31.5265 166.57 31.5738C166.478 31.6211 166.377 31.6498 166.273 31.6583H166.208C166.011 31.6581 165.821 31.5845 165.676 31.452C165.531 31.3194 165.44 31.1375 165.422 30.9419V30.938ZM221.892 29.3991C221.683 29.3991 221.482 29.3162 221.334 29.1685C221.185 29.0209 221.102 28.8207 221.102 28.6119C221.102 28.6021 221.102 28.5922 221.102 28.5824C221.102 28.5726 221.102 28.5627 221.102 28.5509C221.102 28.3421 221.185 28.1419 221.334 27.9943C221.482 27.8467 221.683 27.7637 221.892 27.7637C222.102 27.7637 222.303 27.8467 222.451 27.9943C222.599 28.1419 222.682 28.3421 222.682 28.5509V28.5824V28.6178C222.682 28.8266 222.599 29.0268 222.451 29.1744C222.303 29.3221 222.102 29.405 221.892 29.405V29.3991ZM166.147 26.949C165.938 26.931 165.745 26.8311 165.611 26.6713C165.476 26.5115 165.41 26.3049 165.428 26.0969C165.448 25.8896 165.549 25.6984 165.71 25.5653C165.87 25.4322 166.077 25.3678 166.285 25.3865C166.389 25.3951 166.49 25.4241 166.582 25.4716C166.674 25.5192 166.756 25.5844 166.823 25.6635C166.89 25.7427 166.941 25.8342 166.972 25.9329C167.004 26.0316 167.015 26.1354 167.006 26.2386C166.99 26.4359 166.899 26.6198 166.753 26.7537C166.607 26.8875 166.415 26.9615 166.216 26.9608L166.147 26.949ZM220.721 23.9971C220.686 23.7915 220.735 23.5805 220.856 23.4104C220.977 23.2403 221.161 23.125 221.367 23.0899V23.0899C221.573 23.0551 221.785 23.1033 221.956 23.224C222.126 23.3446 222.242 23.5278 222.277 23.7334V23.7334C222.295 23.8353 222.292 23.9398 222.269 24.0406C222.246 24.1415 222.203 24.2369 222.143 24.3214C222.084 24.4058 222.007 24.4776 221.92 24.5328C221.832 24.5879 221.734 24.6252 221.631 24.6426C221.587 24.6464 221.543 24.6464 221.499 24.6426C221.313 24.6425 221.133 24.5769 220.99 24.4574C220.848 24.3378 220.753 24.172 220.721 23.9892V23.9971ZM166.807 22.2889C166.604 22.2362 166.431 22.1054 166.325 21.9253C166.219 21.7452 166.189 21.5306 166.242 21.3286C166.268 21.2284 166.313 21.1343 166.376 21.0517C166.438 20.969 166.517 20.8995 166.606 20.847C166.696 20.7946 166.795 20.7602 166.898 20.7459C167 20.7317 167.105 20.7377 167.206 20.7638V20.7638C167.408 20.8165 167.582 20.9473 167.688 21.1274C167.794 21.3075 167.823 21.5221 167.77 21.7241C167.727 21.893 167.628 22.0426 167.49 22.1495C167.351 22.2563 167.181 22.3144 167.006 22.3145C166.941 22.3114 166.877 22.3001 166.815 22.2811L166.807 22.2889ZM219.558 19.5653C219.488 19.3685 219.5 19.1523 219.59 18.9641C219.681 18.7759 219.842 18.6312 220.04 18.5616C220.237 18.4924 220.454 18.504 220.643 18.594C220.832 18.6841 220.977 18.8451 221.047 19.0418V19.0418C221.082 19.1394 221.097 19.2428 221.091 19.3462C221.086 19.4495 221.06 19.5508 221.015 19.6442C220.971 19.7376 220.908 19.8213 220.83 19.8905C220.753 19.9597 220.663 20.013 220.565 20.0474V20.0474C220.48 20.0761 220.392 20.0908 220.302 20.0907C220.139 20.0884 219.981 20.036 219.849 19.9405C219.717 19.845 219.618 19.7112 219.566 19.5574L219.558 19.5653ZM168.26 17.7961C168.165 17.7536 168.08 17.6929 168.009 17.6174C167.938 17.5419 167.882 17.4532 167.846 17.3563C167.809 17.2594 167.792 17.1562 167.795 17.0527C167.798 16.9492 167.822 16.8474 167.865 16.7531C167.951 16.5629 168.11 16.4146 168.306 16.3408C168.502 16.267 168.719 16.2737 168.91 16.3595V16.3595C169.101 16.4454 169.25 16.6033 169.324 16.7986C169.398 16.9938 169.391 17.2103 169.305 17.4006V17.4006C169.242 17.5386 169.141 17.6557 169.013 17.7377C168.885 17.8197 168.736 17.8633 168.584 17.863C168.473 17.8646 168.362 17.8418 168.26 17.7961V17.7961ZM217.662 15.3854C217.611 15.2951 217.579 15.1957 217.566 15.0929C217.554 14.9901 217.562 14.8859 217.591 14.7863C217.619 14.6866 217.667 14.5935 217.731 14.5123C217.796 14.4311 217.875 14.3633 217.966 14.3129V14.3129C218.149 14.2112 218.365 14.186 218.566 14.2428C218.768 14.2997 218.938 14.4339 219.04 14.6159C219.091 14.7061 219.124 14.8054 219.136 14.9081C219.149 15.0109 219.141 15.115 219.112 15.2146C219.084 15.3142 219.037 15.4073 218.973 15.4887C218.908 15.57 218.829 15.6379 218.738 15.6885C218.617 15.7553 218.481 15.7898 218.343 15.7888V15.7888C218.205 15.786 218.071 15.7472 217.953 15.6765C217.835 15.6057 217.737 15.5053 217.67 15.3854H217.662ZM170.462 13.6142C170.376 13.5563 170.302 13.482 170.245 13.3956C170.188 13.3092 170.148 13.2125 170.129 13.1108C170.109 13.0092 170.11 12.9047 170.131 12.8033C170.152 12.702 170.193 12.6057 170.251 12.5201V12.5201C170.309 12.4345 170.384 12.3612 170.471 12.3044C170.557 12.2476 170.655 12.2084 170.757 12.189C170.858 12.1696 170.963 12.1705 171.065 12.1915C171.167 12.2125 171.263 12.2533 171.349 12.3115V12.3115C171.435 12.3696 171.508 12.444 171.565 12.5304C171.622 12.6169 171.662 12.7137 171.681 12.8153C171.701 12.9169 171.7 13.0214 171.679 13.1227C171.658 13.224 171.617 13.3201 171.558 13.4056V13.4056C171.486 13.5118 171.388 13.5987 171.274 13.6588C171.16 13.7188 171.033 13.7501 170.905 13.75C170.748 13.7512 170.595 13.706 170.464 13.6202L170.462 13.6142ZM215.095 11.5853C214.963 11.4229 214.902 11.2152 214.924 11.0079C214.946 10.8005 215.05 10.6104 215.213 10.4793V10.4793C215.376 10.3485 215.584 10.2874 215.793 10.3096C216.001 10.3317 216.191 10.4352 216.323 10.5974V10.5974C216.454 10.7598 216.516 10.9675 216.493 11.1748C216.471 11.3822 216.367 11.5723 216.204 11.7034V11.7034C216.064 11.8165 215.889 11.8783 215.709 11.8785C215.591 11.8791 215.475 11.8536 215.369 11.8039C215.263 11.7542 215.169 11.6816 215.095 11.5912V11.5853ZM173.336 9.87517C173.261 9.80349 173.201 9.71781 173.159 9.62301C173.118 9.52822 173.095 9.42618 173.093 9.32273C173.091 9.21927 173.11 9.11644 173.147 9.02011C173.185 8.92377 173.242 8.83583 173.314 8.76131V8.76131C173.459 8.61092 173.658 8.52397 173.867 8.51955C174.076 8.51512 174.279 8.59358 174.43 8.7377V8.7377C174.505 8.80924 174.565 8.89482 174.607 8.98954C174.649 9.08427 174.671 9.18627 174.673 9.28973C174.676 9.39318 174.657 9.49605 174.62 9.59245C174.582 9.68886 174.525 9.7769 174.453 9.85155V9.85155C174.38 9.92818 174.291 9.98914 174.193 10.0307C174.095 10.0723 173.989 10.0937 173.883 10.0936V10.0936C173.679 10.0938 173.483 10.0156 173.336 9.87517V9.87517ZM211.905 8.28507C211.827 8.21663 211.764 8.13356 211.718 8.04061C211.672 7.94767 211.646 7.84668 211.639 7.74341C211.633 7.64014 211.647 7.53662 211.681 7.43878C211.714 7.34093 211.767 7.25068 211.836 7.17319V7.17319C211.975 7.01706 212.17 6.92213 212.379 6.90922C212.587 6.89631 212.793 6.96647 212.95 7.10431V7.10431C213.107 7.2422 213.202 7.43652 213.216 7.64461C213.229 7.8527 213.159 8.05756 213.021 8.21423V8.21423C212.947 8.29783 212.856 8.36476 212.753 8.41056C212.651 8.45637 212.541 8.48 212.429 8.4799V8.4799C212.236 8.48064 212.05 8.41137 211.905 8.28507V8.28507ZM176.792 6.66152C176.667 6.49367 176.615 6.28354 176.646 6.07728C176.677 5.87102 176.789 5.6855 176.958 5.56144V5.56144C177.041 5.49973 177.136 5.455 177.236 5.42981C177.337 5.40461 177.442 5.39945 177.545 5.41462C177.647 5.4298 177.746 5.465 177.835 5.51822C177.924 5.57144 178.002 5.64163 178.064 5.72478V5.72478C178.125 5.80796 178.17 5.90247 178.195 6.0029C178.22 6.10334 178.225 6.20773 178.21 6.31009C178.195 6.41245 178.159 6.51079 178.105 6.59945C178.052 6.68812 177.981 6.76539 177.898 6.82683V6.82683C177.762 6.92681 177.597 6.98062 177.428 6.98033C177.305 6.97926 177.185 6.94991 177.076 6.89459C176.967 6.83926 176.872 6.75948 176.8 6.66152H176.792ZM208.214 5.55751C208.036 5.44777 207.909 5.27216 207.861 5.06924C207.813 4.86631 207.848 4.65265 207.957 4.47514V4.47514C208.067 4.29751 208.243 4.17058 208.447 4.12224C208.651 4.0739 208.865 4.10811 209.044 4.21734V4.21734C209.132 4.27168 209.209 4.34286 209.269 4.42679C209.33 4.51071 209.374 4.60575 209.398 4.70646C209.421 4.80718 209.425 4.91159 209.408 5.01372C209.392 5.11585 209.355 5.2137 209.3 5.30168V5.30168C209.229 5.41613 209.13 5.51059 209.012 5.57605C208.895 5.6415 208.762 5.67577 208.627 5.67558V5.67558C208.484 5.67352 208.344 5.63271 208.222 5.55751H208.214ZM180.757 4.07565C180.711 3.98326 180.683 3.88264 180.675 3.77953C180.668 3.67642 180.681 3.57283 180.713 3.4747C180.746 3.37657 180.798 3.2858 180.866 3.20759C180.933 3.12938 181.016 3.06525 181.109 3.01887V3.01887C181.296 2.92502 181.513 2.90899 181.711 2.97431C181.91 3.03962 182.075 3.18093 182.169 3.36719V3.36719C182.264 3.55354 182.28 3.76952 182.214 3.96768C182.148 4.16583 182.007 4.32995 181.82 4.42397V4.42397C181.71 4.47948 181.588 4.50847 181.464 4.5086V4.5086C181.318 4.50888 181.174 4.46854 181.049 4.39208C180.924 4.31562 180.823 4.20606 180.757 4.07565V4.07565ZM204.122 3.48527C204.026 3.44654 203.938 3.38929 203.864 3.31679C203.79 3.24429 203.731 3.15797 203.691 3.06275C203.65 2.96753 203.629 2.86528 203.628 2.76186C203.627 2.65843 203.647 2.55585 203.686 2.45997V2.45997C203.764 2.26676 203.916 2.11246 204.109 2.03093C204.301 1.9494 204.519 1.94729 204.713 2.02506V2.02506C204.907 2.10291 205.062 2.25442 205.144 2.4463C205.227 2.63819 205.229 2.85474 205.151 3.04839V3.04839C205.092 3.19448 204.991 3.31964 204.86 3.40769C204.729 3.49575 204.574 3.54265 204.416 3.54234C204.316 3.54402 204.216 3.52734 204.122 3.49314V3.48527ZM185.1 2.1884C185.07 2.08942 185.059 1.98542 185.069 1.88237C185.079 1.77931 185.109 1.67922 185.158 1.58782C185.207 1.49642 185.273 1.4155 185.353 1.34972C185.434 1.28393 185.526 1.23456 185.625 1.20443V1.20443C185.825 1.14294 186.042 1.16313 186.227 1.26054C186.412 1.35796 186.551 1.52464 186.613 1.72396V1.72396C186.643 1.82294 186.654 1.92693 186.644 2.02999C186.634 2.13305 186.604 2.23314 186.555 2.32454C186.506 2.41594 186.44 2.49685 186.36 2.56264C186.279 2.62843 186.187 2.6778 186.088 2.70793V2.70793C186.012 2.72963 185.935 2.74089 185.856 2.74139V2.74139C185.689 2.74238 185.525 2.69008 185.389 2.59206C185.253 2.49405 185.152 2.35542 185.1 2.19627V2.1884ZM199.73 2.14313C199.525 2.09925 199.346 1.97613 199.233 1.80084C199.119 1.62555 199.08 1.41243 199.124 1.20836V1.20836C199.17 1.00701 199.293 0.831677 199.467 0.72014C199.642 0.608602 199.853 0.569793 200.056 0.612077V0.612077C200.261 0.655957 200.44 0.779079 200.553 0.954372C200.667 1.12967 200.706 1.34278 200.662 1.54685V1.54685C200.624 1.72287 200.527 1.88061 200.386 1.99377C200.246 2.10693 200.071 2.16868 199.89 2.16872C199.836 2.16816 199.783 2.16223 199.73 2.15101V2.14313ZM189.696 1.07848C189.682 0.97587 189.689 0.871656 189.717 0.771797C189.744 0.671937 189.79 0.578391 189.854 0.496509C189.917 0.414626 189.996 0.346013 190.086 0.294594C190.177 0.243174 190.276 0.209957 190.379 0.196842C190.482 0.183884 190.586 0.191271 190.687 0.218581C190.787 0.245892 190.88 0.292589 190.962 0.356006C191.044 0.419423 191.113 0.498316 191.164 0.588177C191.216 0.678037 191.249 0.777104 191.262 0.879717V0.879717C191.276 0.983223 191.27 1.08861 191.244 1.18972C191.217 1.29084 191.17 1.38565 191.107 1.46864C191.043 1.55163 190.963 1.62112 190.872 1.67307C190.781 1.72502 190.681 1.75837 190.576 1.77119V1.77119C190.543 1.77315 190.509 1.77315 190.476 1.77119C190.283 1.77018 190.098 1.69925 189.954 1.57171C189.811 1.44418 189.719 1.26879 189.696 1.07848V1.07848ZM195.172 1.5744C194.963 1.56521 194.766 1.4736 194.624 1.31971C194.483 1.16583 194.408 0.962263 194.418 0.753769V0.753769C194.426 0.545286 194.518 0.348786 194.672 0.207453C194.826 0.0661205 195.03 -0.00847973 195.239 4.79935e-05V4.79935e-05C195.448 0.00874185 195.646 0.0998563 195.787 0.253367C195.929 0.406877 196.004 0.610222 195.995 0.818711V0.818711C195.987 1.02163 195.9 1.21336 195.753 1.35382C195.605 1.49429 195.409 1.57261 195.206 1.57243H195.172V1.5744Z" fill="#CCCCCC"/>
    <path fill-rule="evenodd" clip-rule="evenodd" d="M194.285 16.7709C194.104 16.704 193.905 16.704 193.724 16.7709L184.14 20.3506C183.988 20.4082 183.858 20.5104 183.765 20.6435C183.673 20.7767 183.623 20.9346 183.623 21.0964V29.4523C183.623 33.3882 186.243 36.5743 188.686 38.7016C189.75 39.6237 190.886 40.4601 192.083 41.2029C192.545 41.4902 192.932 41.7126 193.205 41.8621C193.341 41.9389 193.45 41.9959 193.525 42.0353L193.612 42.0806L193.635 42.0924C193.692 42.12 193.752 42.1412 193.813 42.1553C193.872 42.1687 193.931 42.1753 193.991 42.175V42.175C194.051 42.1753 194.11 42.1687 194.169 42.1553C194.23 42.1412 194.29 42.12 194.346 42.0924L194.37 42.0806L194.457 42.0353C194.532 41.9959 194.641 41.9389 194.777 41.8621C195.05 41.7126 195.437 41.4902 195.899 41.2029C197.096 40.4601 198.232 39.6237 199.296 38.7016C201.738 36.5723 204.359 33.3882 204.359 29.4523V20.5356L202.758 22.7456V24.3711V29.4523C202.758 32.6778 200.585 35.4604 198.239 37.5071C197.239 38.3729 196.172 39.158 195.048 39.8548C194.613 40.1264 194.258 40.335 193.999 40.4728L193.975 40.4865L193.95 40.4728C193.699 40.335 193.335 40.1264 192.901 39.8548C191.776 39.1575 190.709 38.3724 189.709 37.5071C187.361 35.4604 185.191 32.6778 185.191 29.4523V21.6475L193.975 18.3649L200.648 20.8603L201.458 19.463L194.285 16.7709Z" fill="#272727"/>
    <path d="M203.233 17.6248C203.142 17.572 203.042 17.5379 202.937 17.5244C202.833 17.5112 202.727 17.5179 202.625 17.5441C202.42 17.6002 202.245 17.7355 202.139 17.92L193.414 30.0267L190.452 28.3225L188.856 27.4231L187.721 26.7639C187.537 26.6581 187.318 26.6291 187.112 26.6832C187.01 26.7095 186.914 26.7562 186.829 26.8204C186.745 26.8845 186.675 26.9649 186.623 27.0567C186.57 27.1485 186.537 27.2499 186.525 27.3547C186.513 27.4596 186.522 27.5659 186.552 27.6672C186.607 27.868 186.741 28.0386 186.923 28.1414L188.864 29.2474L190.46 30.1468L194.015 32.1856L203.528 18.7091C203.581 18.6195 203.616 18.5202 203.63 18.4171C203.644 18.314 203.638 18.209 203.611 18.1084C203.585 18.0077 203.538 17.9133 203.475 17.8306C203.411 17.748 203.332 17.6787 203.241 17.6267L203.233 17.6248Z" fill="#017171"/>
  </g>
  <defs>
    <clipPath id="clip0_6090_186930">
      <rect width="290" height="240" fill="white"/>
    </clipPath>
  </defs>
</svg>
