<svg width="322" height="143" viewBox="0 0 322 143" fill="none" xmlns="http://www.w3.org/2000/svg">
  <g clip-path="url(#clip0_6189_198674)">
    <rect width="320.667" height="143" transform="translate(0.666656)" fill="#F2F2F2"/>
    <g clip-path="url(#clip1_6189_198674)">
      <path d="M244.201 81.628C243.459 80.7179 242.525 79.9846 241.466 79.481C240.407 78.9774 239.25 78.7161 238.078 78.7161H187.499C185.673 78.7211 183.904 79.3552 182.487 80.5122C181.071 81.6692 180.094 83.279 179.719 85.0724L171.591 124.39H141.073L139.321 133.367H228.774C231.105 133.353 233.36 132.534 235.158 131.047C236.957 129.561 238.19 127.497 238.649 125.205L245.858 88.2382C246.089 87.0821 246.06 85.8889 245.773 84.7454C245.487 83.602 244.95 82.537 244.201 81.628Z" fill="#0A273D"/>
      <path d="M152.319 26.2603C150.922 24.382 149.106 22.8585 147.016 21.8122C144.926 20.7659 142.621 20.226 140.285 20.2357C137.02 20.2465 133.846 21.317 131.238 23.2873C128.629 25.2575 126.726 28.0217 125.813 31.1667L119.453 53.3237L116.188 64.6642C115.657 66.4842 114.555 68.0833 113.044 69.223C111.534 70.3627 109.697 70.9817 107.807 70.9878H106.99L118.592 77.2662L131.52 71.34L133.272 65.3769H138.142C140.787 65.3693 143.359 64.5026 145.472 62.9064C147.585 61.3103 149.127 59.0706 149.866 56.5223L154.756 39.5421C155.415 37.2914 155.537 34.917 155.114 32.6101C154.691 30.3032 153.733 28.1282 152.319 26.2603Z" fill="#F2A068"/>
      <path d="M144.049 47.9217C143.898 47.9225 143.749 47.8877 143.615 47.8201C143.48 47.7525 143.363 47.654 143.273 47.5326C143.182 47.4121 143.121 47.2717 143.095 47.1229C143.069 46.9741 143.078 46.8211 143.122 46.6766L149.825 23.8153L149.862 23.6842L149.756 23.5982C147.084 21.4079 143.735 20.2191 140.285 20.2358C139.456 20.2361 138.629 20.3046 137.811 20.4405C137.403 20.5061 136.995 20.5921 136.615 20.6904C135.249 21.0343 133.938 21.5692 132.721 22.2794C132.378 22.4801 132.039 22.689 131.712 22.9224C131.058 23.3785 130.439 23.8851 129.863 24.4378C129.573 24.7163 129.296 25.0071 129.047 25.3061L128.638 25.7607C128.128 26.3869 127.669 27.0524 127.263 27.7511C127.161 27.9272 127.063 28.1074 126.969 28.2876C126.777 28.648 126.601 29.0207 126.438 29.4016C126.357 29.59 126.283 29.7825 126.21 29.975C126.059 30.3641 125.928 30.7654 125.801 31.1668L119.339 53.7128H128.075C129.594 53.707 131.07 53.2125 132.288 52.302C133.506 51.3915 134.4 50.1131 134.839 48.6548L135.039 47.9872L134.839 47.9299C133.968 47.6766 133.233 47.0876 132.794 46.2917C132.355 45.4957 132.248 44.5577 132.496 43.6828L133.545 40.0337C133.674 39.5816 133.894 39.1609 134.192 38.7979C134.49 38.4349 134.859 38.1373 135.276 37.9236C135.694 37.71 136.15 37.5849 136.618 37.5562C137.086 37.5274 137.554 37.5956 137.995 37.7565C138.822 38.0728 139.498 38.6927 139.886 39.4905C140.274 40.2882 140.345 41.2042 140.085 42.0528L133.313 65.3769H138.154C140.799 65.3693 143.371 64.5026 145.484 62.9065C147.598 61.3104 149.139 59.0706 149.878 56.5223L152.348 47.9217H144.049Z" fill="#272727"/>
      <path d="M332.85 286H327.694C326.753 286 325.851 285.625 325.186 284.958C324.521 284.29 324.147 283.385 324.147 282.441V163.433C324.147 158.717 322.28 154.195 318.956 150.861C315.633 147.527 311.126 145.654 306.426 145.654H17.3007C12.6012 145.655 8.09447 147.528 4.77141 150.862C1.44835 154.196 -0.419 158.718 -0.420083 163.433V282.441C-0.420083 283.385 -0.793828 284.29 -1.4591 284.958C-2.12437 285.625 -3.02667 286 -3.96751 286H-9.11923C-10.0601 286 -10.9624 285.625 -11.6276 284.958C-12.2929 284.29 -12.6667 283.385 -12.6667 282.441V163.433C-12.6667 155.459 -9.50939 147.812 -3.88942 142.173C1.73055 136.535 9.35287 133.367 17.3007 133.367H306.426C314.374 133.367 321.996 136.535 327.616 142.173C333.236 147.812 336.393 155.459 336.393 163.433V282.441C336.393 283.384 336.02 284.289 335.356 284.956C334.691 285.624 333.79 285.999 332.85 286V286Z" fill="#CCD4D9"/>
      <path d="M139.293 0.843224C158.111 0.843224 173.367 -14.4622 173.367 -33.3423C173.367 -52.2225 158.111 -67.5278 139.293 -67.5278C120.474 -67.5278 105.219 -52.2225 105.219 -33.3423C105.219 -14.4622 120.474 0.843224 139.293 0.843224Z" fill="#FFBE3C"/>
      <path d="M297.045 113.344C314.414 113.344 328.494 99.2178 328.494 81.7921C328.494 64.3663 314.414 50.24 297.045 50.24C279.676 50.24 265.596 64.3663 265.596 81.7921C265.596 99.2178 279.676 113.344 297.045 113.344Z" fill="#A8D7E2"/>
      <path d="M84.7099 48.4908C98.8638 48.4908 110.338 36.9792 110.338 22.779C110.338 8.57873 98.8638 -2.93286 84.7099 -2.93286C70.5559 -2.93286 59.0819 8.57873 59.0819 22.779C59.0819 36.9792 70.5559 48.4908 84.7099 48.4908Z" fill="#A8D7E2"/>
      <path d="M215.091 61.3552C237.327 61.3552 255.354 43.27 255.354 20.9608C255.354 -1.3484 237.327 -19.4336 215.091 -19.4336C192.854 -19.4336 174.828 -1.3484 174.828 20.9608C174.828 43.27 192.854 61.3552 215.091 61.3552Z" fill="#007171"/>
      <path d="M130.296 70.9878H107.811C103.609 71.0032 99.5375 72.4577 96.2712 75.1105C93.0049 77.7634 90.7394 81.4556 89.8494 85.5761L69.4589 181.822L69.4058 182.071H129.047L147.927 92.9481V92.8539L130.296 70.9878Z" fill="#A8D7E2"/>
      <path d="M148.768 183.354H111.142C108.717 183.355 106.366 182.519 104.482 180.988C102.598 179.456 101.296 177.321 100.794 174.941L86.8206 108.925C86.166 105.829 84.4701 103.052 82.0174 101.061C79.5647 99.0703 76.5043 97.986 73.3493 97.99H42.243C40.1935 97.9881 38.1695 98.4457 36.3189 99.3293C34.4683 100.213 32.8379 101.5 31.5467 103.097C30.2556 104.694 29.3364 106.56 28.8563 108.559C28.3762 110.558 28.3473 112.639 28.7718 114.651L43.8759 186.048V186.081C45.1005 191.774 50.9912 195.059 55.9306 195.059L140.812 195.026C142.086 195.03 143.349 194.781 144.528 194.294C145.707 193.808 146.778 193.092 147.681 192.19C148.584 191.287 149.301 190.214 149.79 189.033C150.279 187.852 150.531 186.586 150.531 185.307V185.172C150.531 184.698 150.347 184.243 150.018 183.903C149.689 183.564 149.24 183.366 148.768 183.354V183.354Z" fill="#007171"/>
      <path d="M168.991 107.033L141.122 75.6241C138.45 72.7771 134.76 71.1117 130.864 70.9942C126.968 70.8767 123.185 72.3167 120.347 74.9975C117.51 77.6782 115.85 81.3801 115.733 85.2888C115.616 89.1975 117.051 92.9928 119.723 95.8397L153.323 130.816C154.069 131.586 154.961 132.199 155.947 132.617C156.933 133.035 157.993 133.25 159.063 133.249C159.878 133.249 160.688 133.122 161.463 132.872L199.836 120.507C203.284 119.406 206.294 117.234 208.432 114.305C210.57 111.376 211.725 107.841 211.731 104.211V101.696L168.991 107.033Z" fill="#F2A068"/>
      <path d="M227.921 112.738L219.757 104.624C218.656 103.519 217.316 102.682 215.84 102.18C214.365 101.678 212.794 101.523 211.25 101.729L205.657 102.45C204.959 102.54 204.325 102.905 203.895 103.464C203.464 104.023 203.273 104.731 203.363 105.431C203.453 106.132 203.816 106.768 204.374 107.2C204.931 107.631 205.636 107.823 206.335 107.733L206.874 107.663V121.535C206.874 122.241 207.153 122.918 207.651 123.417C208.148 123.917 208.823 124.197 209.527 124.197C210.231 124.197 210.906 123.917 211.403 123.417C211.901 122.918 212.18 122.241 212.18 121.535V120.716C212.454 121.245 212.897 121.667 213.439 121.914C213.98 122.161 214.588 122.218 215.166 122.076C215.744 121.934 216.257 121.602 216.624 121.133C216.991 120.663 217.19 120.084 217.189 119.487V109.576L224.162 116.538C224.407 116.794 224.7 116.998 225.025 117.138C225.35 117.278 225.699 117.352 226.053 117.355C226.406 117.358 226.756 117.29 227.083 117.155C227.41 117.02 227.707 116.821 227.956 116.569C228.205 116.317 228.402 116.018 228.534 115.689C228.667 115.361 228.732 115.009 228.727 114.654C228.722 114.299 228.646 113.949 228.504 113.625C228.362 113.3 228.157 113.007 227.901 112.762L227.921 112.738Z" fill="#F2A068"/>
      <path d="M168.991 107.033L141.122 75.6241C138.45 72.7771 134.76 71.1117 130.864 70.9942C126.968 70.8767 123.185 72.3167 120.347 74.9975C117.51 77.6782 115.85 81.3801 115.733 85.2888C115.616 89.1975 117.051 92.9928 119.723 95.8397L153.323 130.816C154.069 131.586 154.961 132.199 155.947 132.617C156.933 133.035 157.993 133.25 159.063 133.248C159.878 133.249 160.688 133.122 161.463 132.872L170.101 130.091L175.33 106.517L175.392 106.234L168.991 107.033Z" fill="#A8D7E2"/>
      <path d="M227.652 7.71973H202.526C200.502 7.72297 198.562 8.53077 197.13 9.96623C195.699 11.4017 194.893 13.3478 194.888 15.3784V32.8049C194.888 33.1732 195.034 33.5263 195.294 33.7867C195.553 34.0471 195.905 34.1933 196.272 34.1933H227.652C229.677 34.1912 231.619 33.3833 233.052 31.9468C234.484 30.5104 235.291 28.5626 235.294 26.5306V15.3784C235.29 13.3471 234.483 11.4004 233.05 9.96479C231.618 8.52921 229.677 7.72189 227.652 7.71973Z" fill="#FFBE3C"/>
      <path d="M224.072 23.4672C225.508 23.4672 226.672 22.2992 226.672 20.8584C226.672 19.4175 225.508 18.2495 224.072 18.2495C222.636 18.2495 221.471 19.4175 221.471 20.8584C221.471 22.2992 222.636 23.4672 224.072 23.4672Z" fill="#007171"/>
      <path d="M215.091 23.4672C216.527 23.4672 217.691 22.2992 217.691 20.8584C217.691 19.4175 216.527 18.2495 215.091 18.2495C213.655 18.2495 212.491 19.4175 212.491 20.8584C212.491 22.2992 213.655 23.4672 215.091 23.4672Z" fill="#007171"/>
      <path d="M206.11 23.4672C207.546 23.4672 208.711 22.2992 208.711 20.8584C208.711 19.4175 207.546 18.2495 206.11 18.2495C204.674 18.2495 203.51 19.4175 203.51 20.8584C203.51 22.2992 204.674 23.4672 206.11 23.4672Z" fill="#007171"/>
      <path d="M92.9845 25.1835C94.3079 25.1835 95.3808 24.1071 95.3808 22.7794C95.3808 21.4516 94.3079 20.3752 92.9845 20.3752C91.6611 20.3752 90.5883 21.4516 90.5883 22.7794C90.5883 24.1071 91.6611 25.1835 92.9845 25.1835Z" fill="#0A273D"/>
      <path d="M84.7099 25.1835C86.0333 25.1835 87.1061 24.1071 87.1061 22.7794C87.1061 21.4516 86.0333 20.3752 84.7099 20.3752C83.3865 20.3752 82.3137 21.4516 82.3137 22.7794C82.3137 24.1071 83.3865 25.1835 84.7099 25.1835Z" fill="#0A273D"/>
      <path d="M76.4353 25.1835C77.7587 25.1835 78.8315 24.1071 78.8315 22.7794C78.8315 21.4516 77.7587 20.3752 76.4353 20.3752C75.1119 20.3752 74.039 21.4516 74.039 22.7794C74.039 24.1071 75.1119 25.1835 76.4353 25.1835Z" fill="#0A273D"/>
      <path d="M323.873 3.91098C323.779 3.91141 323.686 3.8976 323.596 3.87002C323.335 3.7965 323.115 3.62238 322.983 3.38588C322.85 3.14937 322.817 2.86982 322.889 2.6086C323.988 -1.28627 323.098 -5.17295 320.514 -7.75314C317.93 -10.3333 314.068 -11.2385 310.186 -10.1408C309.928 -10.0743 309.654 -10.1116 309.423 -10.2449C309.192 -10.3781 309.022 -10.5967 308.95 -10.8539C308.877 -11.1111 308.908 -11.3866 309.035 -11.6215C309.162 -11.8563 309.376 -12.0319 309.631 -12.1108C314.235 -13.4132 318.844 -12.3279 321.959 -9.20297C325.073 -6.07807 326.155 -1.45419 324.853 3.16149C324.794 3.3768 324.666 3.56673 324.489 3.70212C324.312 3.83752 324.096 3.91089 323.873 3.91098V3.91098Z" fill="#A8D7E2"/>
      <path d="M329.421 4.9512C329.326 4.95167 329.231 4.93787 329.139 4.91025C329.01 4.87343 328.89 4.81149 328.785 4.72797C328.68 4.64444 328.592 4.54095 328.527 4.42343C328.462 4.30591 328.42 4.17664 328.405 4.04303C328.389 3.90942 328.4 3.77407 328.437 3.64472C330.131 -2.26924 328.792 -8.15864 324.849 -12.1149C320.906 -16.0712 315.052 -17.4146 309.145 -15.7149C309.014 -15.6704 308.876 -15.653 308.738 -15.6637C308.6 -15.6744 308.466 -15.713 308.344 -15.7772C308.221 -15.8414 308.113 -15.9298 308.026 -16.0372C307.939 -16.1445 307.874 -16.2685 307.836 -16.4016C307.798 -16.5347 307.787 -16.6742 307.804 -16.8117C307.821 -16.9491 307.866 -17.0817 307.936 -17.2013C308.005 -17.3208 308.099 -17.425 308.21 -17.5074C308.321 -17.5898 308.447 -17.6488 308.581 -17.6808C315.199 -19.5893 321.82 -18.0494 326.294 -13.5607C330.768 -9.07194 332.303 -2.42897 330.401 4.2099C330.34 4.42334 330.211 4.61107 330.034 4.74478C329.858 4.87849 329.642 4.95094 329.421 4.9512V4.9512Z" fill="#A8D7E2"/>
      <path d="M318.611 2.35453C318.519 2.3541 318.427 2.34171 318.338 2.31767C318.209 2.2817 318.088 2.22053 317.982 2.13765C317.876 2.05478 317.788 1.95182 317.722 1.83466C317.656 1.71751 317.614 1.58846 317.597 1.45489C317.581 1.32133 317.591 1.18586 317.627 1.05624C317.91 0.232661 317.955 -0.65386 317.76 -1.5023C317.564 -2.35074 317.135 -3.12698 316.521 -3.74255C315.907 -4.35813 315.133 -4.78829 314.287 -4.984C313.441 -5.17972 312.558 -5.13312 311.737 -4.84953C311.606 -4.80911 311.469 -4.79545 311.333 -4.80936C311.197 -4.82327 311.065 -4.86447 310.945 -4.93051C310.825 -4.99656 310.72 -5.08609 310.635 -5.1938C310.55 -5.30152 310.488 -5.4252 310.452 -5.55753C310.416 -5.68985 310.406 -5.8281 310.425 -5.96408C310.443 -6.10006 310.488 -6.23099 310.558 -6.34908C310.627 -6.46718 310.72 -6.57004 310.83 -6.65155C310.94 -6.73306 311.065 -6.79157 311.198 -6.82359C312.367 -7.20054 313.616 -7.24691 314.809 -6.9576C316.002 -6.66829 317.093 -6.05451 317.961 -5.18374C318.829 -4.31297 319.44 -3.21895 319.729 -2.02196C320.017 -0.824976 319.971 0.428612 319.595 1.60095C319.535 1.81701 319.407 2.00758 319.229 2.14362C319.052 2.27967 318.835 2.35373 318.611 2.35453V2.35453Z" fill="#A8D7E2"/>
      <path d="M309.01 69.7877C306.039 66.8092 302.071 65.0452 297.876 64.8386C293.682 64.6319 289.56 65.9973 286.313 68.6695C283.066 71.3416 280.925 75.1296 280.306 79.2972C279.687 83.4647 280.635 87.7142 282.966 91.2197L282.068 94.5862C281.991 94.8774 281.982 95.1822 282.041 95.4775C282.1 95.7728 282.225 96.0506 282.407 96.2897C282.59 96.5289 282.824 96.723 283.093 96.8572C283.362 96.9914 283.657 97.0621 283.958 97.064C284.13 97.0648 284.302 97.0414 284.468 96.9944L287.595 96.1753C287.685 96.1506 287.77 96.1119 287.848 96.0606C291.358 98.3611 295.594 99.2725 299.735 98.6182C303.876 97.9638 307.628 95.7902 310.263 92.5188C312.898 89.2473 314.229 85.1109 313.997 80.9112C313.766 76.7115 311.989 72.7476 309.01 69.7877V69.7877Z" fill="#0A273D"/>
      <path d="M305.487 78.2779C305.334 78.1195 305.13 78.0213 304.912 78.001C304.693 77.9807 304.474 78.0397 304.295 78.1673L299.964 81.2636C299.865 81.3289 299.746 81.358 299.628 81.346C299.51 81.3341 299.399 81.2819 299.315 81.198L296.355 78.237C296.111 77.9923 295.816 77.8037 295.492 77.6842C295.168 77.5647 294.822 77.5171 294.478 77.5447C294.134 77.5724 293.8 77.6746 293.499 77.8443C293.198 78.014 292.937 78.2472 292.734 78.5277L288.35 84.5932C288.221 84.7732 288.16 84.994 288.18 85.2152C288.199 85.4363 288.298 85.6429 288.458 85.7968C288.617 85.9508 288.827 86.0418 289.048 86.0532C289.269 86.0646 289.486 85.9955 289.66 85.8587L294.151 82.312C294.25 82.2563 294.364 82.2342 294.477 82.249C294.589 82.2637 294.694 82.3146 294.775 82.3939L297.723 85.355C297.944 85.5771 298.207 85.7532 298.496 85.8734C298.786 85.9936 299.096 86.0554 299.409 86.0553C299.473 86.0594 299.537 86.0594 299.601 86.0553C299.942 86.03 300.273 85.9304 300.572 85.7635C300.871 85.5966 301.13 85.3663 301.331 85.0888L305.557 79.4943C305.695 79.3178 305.764 79.0969 305.751 78.8729C305.738 78.649 305.644 78.4374 305.487 78.2779Z" fill="#A8D7E2"/>
    </g>
  </g>
  <defs>
    <clipPath id="clip0_6189_198674">
      <rect width="320.667" height="143" fill="white" transform="translate(0.666656)"/>
    </clipPath>
    <clipPath id="clip1_6189_198674">
      <rect width="358" height="364" fill="white" transform="translate(-12.6667 -78)"/>
    </clipPath>
  </defs>
</svg>
