<?xml version="1.0" encoding="UTF-8"?>
<svg id="Layer_2" data-name="Layer 2" xmlns="http://www.w3.org/2000/svg" viewBox="0 0 42.32 40.57">
  <defs>
    <style>
      .cls-1 {
        fill: #0a0b0a;
        stroke-width: 0px;
      }
    </style>
  </defs>
  <g id="Layer_1-2" data-name="Layer 1">
    <g>
      <path class="cls-1" d="M33.48,0c-.97,0-1.76.79-1.76,1.76,0,.48.19.93.53,1.26l4.04,4.04h-15.14c-.97-.01-1.77.76-1.79,1.74-.01.97.76,1.77,1.74,1.79.02,0,.03,0,.05,0h15.14s4.97,0,5.5-.52c.7-.68.69-1.8,0-2.49l-7.05-7.05c-.33-.34-.79-.53-1.26-.53Z"/>
      <path class="cls-1" d="M28.21,23.36c.97,0,1.76-.79,1.76-1.76,0-.48-.19-.93-.53-1.26l-4.04-4.04h15.14c.97.01,1.77-.76,1.79-1.74.01-.97-.76-1.77-1.74-1.79-.02,0-.03,0-.05,0h-15.14s-4.97,0-5.5.52c-.7.68-.69,1.8,0,2.49l7.05,7.05c.33.34.79.53,1.26.53Z"/>
      <path class="cls-1" d="M6.59,3.55c-.22-.02-.45,0-.67.06-.87.21-2.01.73-3.2,1.92-3.73,3.73-5.7,10.01,8.31,24.02,14.01,14.01,20.29,12.03,24.02,8.31,1.19-1.19,1.71-2.33,1.92-3.21.22-.9-.17-1.82-.97-2.29-1.99-1.16-6.28-3.68-8.27-4.85-.65-.38-1.46-.38-2.11.01l-3.29,1.96c-.74.44-1.66.39-2.33-.14-1.17-.91-3.05-2.45-4.69-4.09-1.64-1.64-3.18-3.52-4.09-4.69-.53-.68-.58-1.6-.14-2.33l1.96-3.29c.39-.65.39-1.46,0-2.11l-4.83-8.25c-.35-.6-.96-.97-1.63-1.03Z"/>
    </g>
  </g>
</svg>