<?xml version="1.0" encoding="UTF-8"?>
<svg id="Layer_2" data-name="Layer 2" xmlns="http://www.w3.org/2000/svg" viewBox="0 0 36 36">
  <defs>
    <style>
      .cls-1 {
        fill: #0a0b0a;
        stroke-width: 0px;
      }
    </style>
  </defs>
  <g id="Layer_1-2" data-name="Layer 1">
    <path class="cls-1" d="M19.56,0c-.47,0-.94.18-1.3.54l-9.98,9.95-2.23,2.25-.78-3.64c-.47-2.14-2.67-3.41-4.77-2.79l-.51.15,1.81,12.69c-.2,1.96.46,3.98,1.96,5.48l2.84,2.84c1.14,1.14,2.62,1.79,4.11,1.93l-5.89-10.27c-.39-.67-.22-1.53.39-2.01l.42-.32c.95-.75,2.09-1.15,3.3-1.15,1.78,0,3.43.88,4.43,2.35l.49.71.12-.27,5.53-12.84-5.48,5.48-.54-.54,7.38-7.41c.72-.72.72-1.87,0-2.59-.36-.36-.83-.54-1.3-.54ZM24.77,1.12c-.49,0-.97.19-1.34.56l-2.03,2.01c.39-.16.83-.24,1.27-.24.46,0,.92.08,1.34.27.34.15.64.35.9.59.39-.69,1.01-1.2,1.74-1.49-.05-.41-.22-.81-.54-1.12-.37-.37-.86-.56-1.34-.56ZM27.95,4.13c-.74,0-1.45.42-1.76,1.15l-5.28,12.2-.71-.29,4.16-9.61c.4-.93-.05-2.02-.98-2.42s-1.99.02-2.4.95l-5.6,12.94-1.25,2.91-2.08-3.08c-1.23-1.82-3.73-2.21-5.45-.86l-.42.32,6.36,11.13c.54,1.89,1.9,3.54,3.84,4.38l3.69,1.61c3.38,1.46,7.32-.12,8.78-3.5l4.01-9.32,2.98-6.87c.41-.96-.04-2.08-1-2.49s-2.06.02-2.47.98l-2.98,6.9-.66-.29,4.69-10.86c.42-.98-.03-2.12-1-2.54s-2.12.03-2.54,1l-4.69,10.88-.76-.34,5.26-12.2c.42-.97,0-2.1-.98-2.52-.24-.1-.51-.14-.76-.15Z"/>
  </g>
</svg>