<?xml version="1.0" encoding="UTF-8"?>
<svg id="Layer_2" data-name="Layer 2" xmlns="http://www.w3.org/2000/svg" viewBox="0 0 40.57 40.54">
  <defs>
    <style>
      .cls-1 {
        fill: #0a0b0a;
        stroke-width: 0px;
      }
    </style>
  </defs>
  <g id="Layer_1-2" data-name="Layer 1">
    <path class="cls-1" d="M1.84,0C.83,0,0,.83,0,1.84v7.37c0,1.02.83,1.84,1.84,1.84h7.37c1.02,0,1.84-.83,1.84-1.84V1.84c0-1.02-.83-1.84-1.84-1.84H1.84ZM5.53,3.69c1.02,0,1.84.83,1.84,1.84s-.83,1.84-1.84,1.84-1.84-.83-1.84-1.84.83-1.84,1.84-1.84ZM16.59,3.69c-1.02-.01-1.85.8-1.87,1.82-.01,1.02.8,1.85,1.82,1.87.02,0,.03,0,.05,0h7.37c1.02.01,1.85-.8,1.87-1.82.01-1.02-.8-1.85-1.82-1.87-.02,0-.03,0-.05,0h-7.37ZM31.33,3.69c-1.02-.01-1.85.8-1.87,1.82s.8,1.85,1.82,1.87c.02,0,.03,0,.05,0h7.37c1.02.01,1.85-.8,1.87-1.82s-.8-1.85-1.82-1.87c-.02,0-.03,0-.05,0h-7.37ZM1.84,14.74c-1.02,0-1.84.83-1.84,1.84v7.37c0,1.02.83,1.84,1.84,1.84h7.37c1.02,0,1.84-.83,1.84-1.84v-7.37c0-1.02-.83-1.84-1.84-1.84H1.84ZM5.53,18.43l2.76,3.69H2.76l2.76-3.69ZM16.59,18.43c-1.02-.01-1.85.8-1.87,1.82-.01,1.02.8,1.85,1.82,1.87.02,0,.03,0,.05,0h7.37c1.02.01,1.85-.8,1.87-1.82.01-1.02-.8-1.85-1.82-1.87-.02,0-.03,0-.05,0h-7.37ZM31.33,18.43c-1.02-.01-1.85.8-1.87,1.82-.01,1.02.8,1.85,1.82,1.87.02,0,.03,0,.05,0h7.37c1.02.01,1.85-.8,1.87-1.82.01-1.02-.8-1.85-1.82-1.87-.02,0-.03,0-.05,0h-7.37ZM1.84,29.49c-1.02,0-1.84.83-1.84,1.84v7.37c0,1.02.83,1.84,1.84,1.84h7.37c1.02,0,1.84-.83,1.84-1.84v-7.37c0-1.02-.83-1.84-1.84-1.84H1.84ZM3.69,33.17h3.69v3.69h-3.69v-3.69ZM16.59,33.17c-1.02-.01-1.85.8-1.87,1.82-.01,1.02.8,1.85,1.82,1.87.02,0,.03,0,.05,0h7.37c1.02.01,1.85-.8,1.87-1.82.01-1.02-.8-1.85-1.82-1.87-.02,0-.03,0-.05,0h-7.37ZM31.33,33.17c-1.02-.01-1.85.8-1.87,1.82s.8,1.85,1.82,1.87c.02,0,.03,0,.05,0h7.37c1.02.01,1.85-.8,1.87-1.82s-.8-1.85-1.82-1.87c-.02,0-.03,0-.05,0h-7.37Z"/>
  </g>
</svg>