<?xml version="1.0" encoding="UTF-8"?>
<svg id="Layer_2" data-name="Layer 2" xmlns="http://www.w3.org/2000/svg" viewBox="0 0 42.54 40.57">
  <defs>
    <style>
      .cls-1 {
        fill: #0a0b0a;
        stroke-width: 0px;
      }
    </style>
  </defs>
  <g id="Layer_1-2" data-name="Layer 1">
    <path class="cls-1" d="M42.46,15.35c-.17-.53-.6-.93-1.13-1.08l-11.95-3.2L22.64.7c-.6-.93-2.14-.93-2.75,0l-6.74,10.38L1.21,14.27c-.54.14-.96.55-1.13,1.08-.17.53-.06,1.1.28,1.53l7.79,9.61-.65,12.35c-.03.55.22,1.08.67,1.41.45.33,1.03.4,1.55.2l11.55-4.43,11.55,4.43c.19.07.39.11.59.11.34,0,.68-.11.96-.31.45-.33.7-.86.67-1.41l-.65-12.35,7.79-9.61c.35-.43.45-1.01.28-1.53ZM27.82,23.53h-4.91v4.91c0,.9-.73,1.64-1.64,1.64s-1.64-.73-1.64-1.64v-4.91h-4.91c-.9,0-1.64-.73-1.64-1.64s.73-1.64,1.64-1.64h4.91v-4.91c0-.9.73-1.64,1.64-1.64s1.64.73,1.64,1.64v4.91h4.91c.9,0,1.64.73,1.64,1.64s-.73,1.64-1.64,1.64Z"/>
  </g>
</svg>