<?xml version="1.0" encoding="UTF-8"?>
<svg id="Layer_2" data-name="Layer 2" xmlns="http://www.w3.org/2000/svg" viewBox="0 0 36 36">
  <defs>
    <style>
      .cls-1 {
        fill: #939393;
      }

      .cls-1, .cls-2 {
        stroke-width: 0px;
      }

      .cls-2 {
        fill: #0a0b0a;
      }
    </style>
  </defs>
  <g id="Layer_1-2" data-name="Layer 1">
    <g>
      <g>
        <path class="cls-2" d="M18.01,36h0c-5.04,0-9.89-2.14-13.29-5.86-.29-.32-.27-.82.05-1.12.32-.29.82-.27,1.12.05,3.1,3.4,7.52,5.35,12.12,5.35h0c1.28,0,2.56-.15,3.79-.44.42-.1.85.16.95.59.1.42-.16.85-.59.95-1.35.32-2.75.48-4.15.48Z"/>
        <path class="cls-1" d="M26.36,33.84c-.28,0-.55-.15-.69-.41-.21-.38-.08-.86.31-1.07,5.21-2.9,8.45-8.4,8.45-14.36,0-5.25-2.42-10.05-6.64-13.19-.35-.26-.42-.76-.16-1.11.26-.35.76-.42,1.11-.16,4.55,3.38,7.27,8.79,7.27,14.46,0,6.53-3.55,12.56-9.26,15.74-.12.07-.25.1-.38.1Z"/>
        <path class="cls-2" d="M2.62,26.53c-.29,0-.57-.16-.71-.43C.65,23.57,0,20.85,0,18c0-3.63,1.08-7.14,3.12-10.13.25-.36.74-.45,1.1-.21.36.25.45.74.21,1.1-1.86,2.73-2.84,5.92-2.84,9.24,0,2.6.59,5.08,1.75,7.38.2.39.04.86-.35,1.06-.11.06-.24.08-.35.08Z"/>
        <path class="cls-2" d="M6.92,5.62c-.22,0-.45-.1-.6-.28-.28-.33-.24-.83.1-1.11C9.65,1.5,13.76,0,18,0h0c2.21,0,4.37.4,6.42,1.18.41.16.61.61.46,1.02-.16.41-.61.61-1.02.46-1.87-.71-3.84-1.07-5.85-1.07h0c-3.86,0-7.62,1.37-10.57,3.85-.15.12-.33.19-.51.19Z"/>
      </g>
      <g>
        <path class="cls-2" d="M23.61,18.37v-7.69c0-.81-.66-1.46-1.46-1.46s-1.46.66-1.46,1.46v2.95l-.68-1.76-3.09-3.61c-.53-.61-1.45-.68-2.06-.16-.61.53-.69,1.45-.16,2.07l1.86,2.17-3.59-1.54c-.74-.32-1.6.03-1.92.77-.32.74.03,1.6.77,1.92l3.16,1.35,1.21,1.21h-2.24l-2.79,1.67c-.72.43-.93,1.37-.46,2.07.44.66,1.36.8,2.04.4l2.02-1.21h2.04s1.46.41,1.46,1.95c0,2.29-1.29,2.94-2.44,2.93-.32,0-.63-.06-.9-.14l-.11-.05-1.75-2.19c-.51-.63-1.43-.73-2.06-.23-.63.51-.73,1.43-.23,2.06l2.15,2.69,3.22,1.61c.21.1.43.15.65.15.17,0,.33-.03.49-.09.82-.23,1.9-.89,2.93-.89,1.25,0,4.09.85,5.37,1.46v-7.93l-1.95-1.95Z"/>
        <path class="cls-2" d="M20.69,13.63v-2.95l1.43,6.66-1.43-3.71ZM17.9,16.05c.49,0,.8.26,1.13.75l1.67,2.22-1.51-3.02c-.28-.56-.85-.92-1.48-.92h-2.51l.98.98h1.72ZM16.78,18.98s1.46.41,1.46,1.95c0,2.29-1.29,2.94-2.44,2.93,1.46,0,3.42-.28,3.42-2.44s-2.44-2.44-2.44-2.44ZM16.64,12.37l2.78,2.78,2.01,3.52-1.52-4.03c-.14-.36-.35-.69-.62-.97l-1.72-1.74c-.25-.25-.55-.46-.88-.6l-1.59-.68,1.44,1.68.09.04Z"/>
      </g>
    </g>
  </g>
</svg>