<?xml version="1.0" encoding="UTF-8"?>
<svg id="Layer_2" data-name="Layer 2" xmlns="http://www.w3.org/2000/svg" viewBox="0 0 43.95 40.57">
  <defs>
    <style>
      .cls-1 {
        fill: #0a0b0a;
        stroke-width: 0px;
      }
    </style>
  </defs>
  <g id="Layer_1-2" data-name="Layer 1">
    <path class="cls-1" d="M21.98,0C9.84,0,0,8.33,0,18.59c0,4.52,1.91,8.67,5.09,11.89.06.16,1.69,4.35-3.13,8.62-.17.16-.27.38-.27.62,0,.47.38.85.85.85.06,0,.12,0,.18-.02,4.86-.29,9.02-2.7,11.56-4.56,2.4.76,4.99,1.2,7.7,1.2,12.14,0,21.98-8.33,21.98-18.59S34.11,0,21.98,0ZM21.98,7.61c1.4,0,2.54,1.14,2.54,2.54s-1.14,2.54-2.54,2.54-2.54-1.14-2.54-2.54,1.14-2.54,2.54-2.54ZM20.29,16.9h3.38v11.83h-3.38v-11.83Z"/>
  </g>
</svg>