<?xml version="1.0" encoding="UTF-8"?>
<svg id="Layer_2" data-name="Layer 2" xmlns="http://www.w3.org/2000/svg" viewBox="0 0 58.9 41.58">
  <defs>
    <style>
      .cls-1 {
        fill: #0a0b0a;
        stroke-width: 0px;
      }
    </style>
  </defs>
  <g id="Layer_1-2" data-name="Layer 1">
    <g>
      <path class="cls-1" d="M22.8,27.24c-2.27,0-4.09-1.83-4.09-4.09v-13.56H4.09c-2.26,0-4.09,1.83-4.09,4.09v18.06c0,2.26,1.83,4.09,4.09,4.09h1.48l3.9,5.5c.32.33.83.33,1.16,0l3.89-5.5h20.58c2.26,0,4.09-1.83,4.09-4.09v-4.5h-16.39Z"/>
      <path class="cls-1" d="M54.81,0h-31.01c-2.27,0-4.09,1.83-4.09,4.09v18.06c0,2.26,1.82,4.09,4.09,4.09h20.58l3.89,5.5c.32.32.84.32,1.16,0l3.9-5.5h1.48c2.26,0,4.09-1.83,4.09-4.09V4.09c0-2.26-1.83-4.09-4.09-4.09ZM37.63,15.01c0,.28-.23.51-.51.51h-12.57c-.28,0-.5-.23-.5-.51v-2.45c0-.28.22-.51.5-.51h12.57c.28,0,.51.23.51.51v2.45ZM51.21,7.75c0,.47-.38.84-.84.84h-25.48c-.47,0-.84-.37-.84-.84v-1.77c0-.47.37-.85.84-.85h25.48c.46,0,.84.38.84.85v1.77Z"/>
    </g>
  </g>
</svg>