<?xml version="1.0" encoding="UTF-8"?>
<svg id="Layer_2" data-name="Layer 2" xmlns="http://www.w3.org/2000/svg" viewBox="0 0 40.57 40.57">
  <defs>
    <style>
      .cls-1 {
        fill: #0a0b0a;
        stroke-width: 0px;
      }
    </style>
  </defs>
  <g id="Layer_1-2" data-name="Layer 1">
    <path class="cls-1" d="M20.29,0C9.08,0,0,9.08,0,20.29s9.08,20.29,20.29,20.29,20.29-9.08,20.29-20.29S31.49,0,20.29,0ZM20.29,23.67c-1.87,0-3.38-1.51-3.38-3.38s1.51-3.38,3.38-3.38,3.38,1.51,3.38,3.38-1.51,3.38-3.38,3.38ZM32.12,23.67c-1.87,0-3.38-1.51-3.38-3.38s1.51-3.38,3.38-3.38,3.38,1.51,3.38,3.38-1.51,3.38-3.38,3.38ZM8.45,23.67c-1.87,0-3.38-1.51-3.38-3.38s1.51-3.38,3.38-3.38,3.38,1.51,3.38,3.38-1.51,3.38-3.38,3.38Z"/>
  </g>
</svg>