<?xml version="1.0" encoding="UTF-8"?>
<svg id="Layer_2" data-name="Layer 2" xmlns="http://www.w3.org/2000/svg" viewBox="0 0 40.57 42.41">
  <defs>
    <style>
      .cls-1 {
        fill: #0a0b0a;
        stroke-width: 0px;
      }
    </style>
  </defs>
  <g id="Layer_1-2" data-name="Layer 1">
    <path class="cls-1" d="M19.36,0c-4.58,0-8.3,3.72-8.3,8.3,0,.32.06.62.09.92h3.69c-.06-.3-.09-.61-.09-.92,0-2.54,2.07-4.61,4.61-4.61s4.61,2.07,4.61,4.61c0,.32-.03.62-.09.92h3.69c.04-.31.09-.61.09-.92,0-.72-.12-1.41-.3-2.07.6-.43,1.33-.69,2.14-.69,2.06,0,3.69,1.63,3.69,3.69h3.69c0-4.05-3.32-7.38-7.38-7.38-1.41,0-2.72.42-3.85,1.11-1.52-1.79-3.77-2.96-6.3-2.96ZM5.53,5.53c-3.03,0-5.53,2.5-5.53,5.53v25.82c0,3.06,2.48,5.53,5.53,5.53h31.35c2.04,0,3.69-1.65,3.69-3.69v-22.13c0-2.04-1.65-3.69-3.69-3.69H5.53c-1.04,0-1.84-.8-1.84-1.84s.8-1.84,1.84-1.84h1.84v-3.69h-1.84ZM33.19,23.97c2.04,0,3.69,1.65,3.69,3.69s-1.65,3.69-3.69,3.69-3.69-1.65-3.69-3.69,1.65-3.69,3.69-3.69Z"/>
  </g>
</svg>