<?xml version="1.0" encoding="UTF-8"?>
<svg id="Layer_2" data-name="Layer 2" xmlns="http://www.w3.org/2000/svg" viewBox="0 0 40.57 40.57">
  <defs>
    <style>
      .cls-1 {
        fill: #0a0b0a;
        stroke-width: 0px;
      }
    </style>
  </defs>
  <g id="Layer_1-2" data-name="Layer 1">
    <path class="cls-1" d="M33.81,0c-3.73,0-6.76,3.03-6.76,6.76,0,.49.06.96.16,1.41l-15.37,7.68c-1.24-1.42-3.04-2.33-5.07-2.33-3.73,0-6.76,3.03-6.76,6.76s3.03,6.76,6.76,6.76c2.03,0,3.83-.92,5.07-2.33l15.37,7.68c-.1.46-.16.93-.16,1.41,0,3.73,3.03,6.76,6.76,6.76s6.76-3.03,6.76-6.76-3.03-6.76-6.76-6.76c-2.03,0-3.83.92-5.07,2.33l-15.37-7.68c.1-.46.16-.93.16-1.41s-.06-.96-.16-1.41l15.37-7.68c1.24,1.42,3.04,2.33,5.07,2.33,3.73,0,6.76-3.03,6.76-6.76s-3.03-6.76-6.76-6.76Z"/>
  </g>
</svg>