<?xml version="1.0" encoding="UTF-8"?>
<svg id="Layer_2" data-name="Layer 2" xmlns="http://www.w3.org/2000/svg" viewBox="0 0 40.57 40.57">
  <defs>
    <style>
      .cls-1 {
        fill: #0a0b0a;
        stroke-width: 0px;
      }
    </style>
  </defs>
  <g id="Layer_1-2" data-name="Layer 1">
    <path class="cls-1" d="M5.53,0C2.5,0,0,2.5,0,5.53v29.51c0,3.06,2.48,5.53,5.53,5.53h31.35c2.04,0,3.69-1.65,3.69-3.69V11.06c0-2.04-1.65-3.69-3.69-3.69H5.53c-1.04,0-1.84-.8-1.84-1.84s.8-1.84,1.84-1.84h27.66c1.02.01,1.86-.8,1.87-1.82.01-1.02-.8-1.86-1.82-1.87-.02,0-.03,0-.05,0H5.53ZM33.19,20.29c2.04,0,3.69,1.65,3.69,3.69s-1.65,3.69-3.69,3.69-3.69-1.65-3.69-3.69,1.65-3.69,3.69-3.69Z"/>
  </g>
</svg>