<svg xmlns="http://www.w3.org/2000/svg" viewBox="0 0 18.33 16.29"><defs><style>.cls-1{fill:#a51221;}</style></defs><g id="Layer_2" data-name="Layer 2"><g id="Layer_1-2" data-name="Layer 1"><path class="cls-1" d="M18.19,14.76,10.05.5A1,1,0,0,0,9.16,0a1,1,0,0,0-.87.5L.14,14.76a1,1,0,0,0,0,1,1,1,0,0,0,.89.51H17.31a1,1,0,0,0,.88-1.53ZM10.13,5.09,9.92,11.2H8.41L8.19,5.09Zm0,8.6a1,1,0,0,1-.2.3,1.08,1.08,0,0,1-.33.2,1.32,1.32,0,0,1-.42.07,1.42,1.42,0,0,1-.42-.07,1.16,1.16,0,0,1-.32-.2,1.21,1.21,0,0,1-.2-.3,1.07,1.07,0,0,1,0-.76,1.21,1.21,0,0,1,.2-.3,1,1,0,0,1,.32-.2,1.16,1.16,0,0,1,.42-.07,1.09,1.09,0,0,1,.42.07.91.91,0,0,1,.33.2,1,1,0,0,1,.2.3,1.07,1.07,0,0,1,0,.76Z"/></g></g></svg>