<svg xmlns="http://www.w3.org/2000/svg" viewBox="0 0 38.14 33.9"><defs><style>.cls-1{fill:#ea3e4f;}</style></defs><g id="Layer_2" data-name="Layer 2"><g id="Layer_1-2" data-name="Layer 1"><path class="cls-1" d="M37.85,30.71,20.9,1.05a2.12,2.12,0,0,0-3.66,0L.29,30.71a2.09,2.09,0,0,0,0,2.12A2.13,2.13,0,0,0,2.12,33.9H36a2.13,2.13,0,0,0,1.83-3.19ZM21.08,10.59l-.44,12.72H17.49L17,10.59Zm0,17.89a1.81,1.81,0,0,1-1.09,1,2.42,2.42,0,0,1-.88.15,2.37,2.37,0,0,1-.87-.15,2,2,0,0,1-.66-.41,1.77,1.77,0,0,1-.43-.62,2,2,0,0,1-.15-.79,2.09,2.09,0,0,1,.15-.79,1.69,1.69,0,0,1,.43-.62,1.74,1.74,0,0,1,.66-.42,2.37,2.37,0,0,1,.87-.15,2.42,2.42,0,0,1,.88.15,1.87,1.87,0,0,1,1.09,1,1.92,1.92,0,0,1,.16.79A1.86,1.86,0,0,1,21,28.48Z"/></g></g></svg>