<svg xmlns="http://www.w3.org/2000/svg" viewBox="0 0 34.89 34.89"><defs><style>.cls-1{fill:gold;}</style></defs><g id="Layer_2" data-name="Layer 2"><g id="Layer_1-2" data-name="Layer 1"><path class="cls-1" d="M30.69,0H4.2A4.19,4.19,0,0,0,0,4.2V30.7a4.18,4.18,0,0,0,4.2,4.19H30.69a4.18,4.18,0,0,0,4.2-4.19V4.2A4.19,4.19,0,0,0,30.69,0ZM27.12,30H25.34a.88.88,0,0,1-.74-.4l-7-10.26L10.1,29.65a.9.9,0,0,1-.72.37H7.77A.91.91,0,0,1,7,28.58l8.12-11.14a.86.86,0,0,1,.25-.22L7.47,6.32A.91.91,0,0,1,8.2,4.88H10a.94.94,0,0,1,.73.37l6.86,9.51,6.72-9.5a.89.89,0,0,1,.73-.38h1.62a.91.91,0,0,1,.74,1.43L19.79,17,27.86,28.6A.9.9,0,0,1,27.12,30Z"/></g></g></svg>