<svg xmlns="http://www.w3.org/2000/svg" viewBox="0 0 35.76 35.76"><defs><style>.cls-1{fill:#ea3e4f;}.cls-2{fill:#fff;}</style></defs><g id="Layer_2" data-name="Layer 2"><g id="Layer_1-2" data-name="Layer 1"><circle class="cls-1" cx="17.88" cy="17.88" r="17.88"/><path class="cls-2" d="M26.88,29.56H25.22a.83.83,0,0,1-.69-.36L18,19.66l-6.94,9.56a.84.84,0,0,1-.67.34H8.88a.83.83,0,0,1-.67-1.33l7.54-10.35a.83.83,0,0,1,.24-.22L8.61,7.53A.84.84,0,0,1,9.28,6.2H11a.85.85,0,0,1,.67.34L18,15.38l6.25-8.83A.84.84,0,0,1,25,6.2h1.51a.83.83,0,0,1,.68,1.32l-7.1,9.92,7.5,10.81A.83.83,0,0,1,26.88,29.56Z"/></g></g></svg>