<svg xmlns="http://www.w3.org/2000/svg" viewBox="0 0 39.93 35.49"><defs><style>.cls-1{fill:#f49fa7;}</style></defs><g id="Layer_2" data-name="Layer 2"><g id="Layer_1-2" data-name="Layer 1"><path class="cls-1" d="M39.63,32.16,21.88,1.1a2.22,2.22,0,0,0-3.83,0L.3,32.16a2.21,2.21,0,0,0,1.92,3.33H37.71a2.21,2.21,0,0,0,1.92-3.33ZM22.07,11.09,21.61,24.4h-3.3l-.47-13.31ZM22,29.82a1.9,1.9,0,0,1-1.14,1.08,2.47,2.47,0,0,1-.92.16A2.43,2.43,0,0,1,19,30.9a2.12,2.12,0,0,1-.69-.43,1.92,1.92,0,0,1-.44-.65,2,2,0,0,1-.17-.82,2.05,2.05,0,0,1,.17-.83A1.9,1.9,0,0,1,19,27.08a2.43,2.43,0,0,1,.92-.16,2.47,2.47,0,0,1,.92.16,1.92,1.92,0,0,1,.7.43,2,2,0,0,1,.44.66,2.05,2.05,0,0,1,.17.83A2,2,0,0,1,22,29.82Z"/></g></g></svg>