<?xml version="1.0" encoding="UTF-8"?>
<svg id="Layer_2" data-name="Layer 2" xmlns="http://www.w3.org/2000/svg" viewBox="0 0 51.15 34.34">
  <defs>
    <style>
      .cls-1 {
        fill: #17debc;
        stroke-width: 0px;
      }
    </style>
  </defs>
  <g id="Layer_1-2" data-name="Layer 1">
    <g>
      <path class="cls-1" d="M9.73,23.84V7.28h-5.52c-2.33,0-4.21,1.88-4.21,4.21v18.63c0,2.33,1.88,4.22,4.21,4.22h31.99c2.33,0,4.22-1.89,4.22-4.22v-2.06H13.95c-2.33,0-4.22-1.88-4.22-4.22Z"/>
      <path class="cls-1" d="M46.93,0H14.95c-2.33,0-4.22,1.89-4.22,4.22v18.62c0,2.34,1.89,4.22,4.22,4.22h31.98c2.34,0,4.22-1.88,4.22-4.22V4.22c0-2.33-1.88-4.22-4.22-4.22ZM23,6.28c.21,0,.39.17.39.39v2.79c0,.21-.18.39-.39.39h-7.01c-.22,0-.39-.18-.39-.39v-2.79c0-.22.17-.39.39-.39h7.01ZM43.62,16.12c0,.48-.39.87-.87.87h-26.28c-.48,0-.87-.39-.87-.87v-1.83c0-.48.39-.87.87-.87h26.28c.48,0,.87.39.87.87v1.83Z"/>
    </g>
  </g>
</svg>