<?xml version="1.0" encoding="UTF-8"?>
<svg id="Layer_2" data-name="Layer 2" xmlns="http://www.w3.org/2000/svg" viewBox="0 0 40.57 31.88">
  <defs>
    <style>
      .cls-1 {
        fill: #17debc;
        stroke-width: 0px;
      }
    </style>
  </defs>
  <g id="Layer_1-2" data-name="Layer 1">
    <path class="cls-1" d="M8.7,0c-2.4,0-4.35,1.95-4.35,4.35s1.95,4.35,4.35,4.35,4.35-1.95,4.35-4.35S11.1,0,8.7,0ZM31.88,0c-2.4,0-4.35,1.95-4.35,4.35s1.95,4.35,4.35,4.35,4.35-1.95,4.35-4.35-1.95-4.35-4.35-4.35ZM20.29,7.24c-2.4,0-4.35,1.95-4.35,4.35s1.95,4.35,4.35,4.35,4.35-1.95,4.35-4.35-1.95-4.35-4.35-4.35ZM8.7,14.49c-2.4,0-4.35,1.95-4.35,4.35s1.95,4.35,4.35,4.35,4.35-1.95,4.35-4.35-1.95-4.35-4.35-4.35ZM31.88,14.49c-2.4,0-4.35,1.95-4.35,4.35s1.95,4.35,4.35,4.35,4.35-1.95,4.35-4.35-1.95-4.35-4.35-4.35ZM8.69,26.08c-3.17,0-7.23,1.97-8.4,3.49-.72.94-.03,2.3,1.15,2.3h14.49c1.19,0,1.87-1.36,1.15-2.3-1.17-1.52-5.23-3.49-8.4-3.49ZM31.88,26.08c-3.17,0-7.23,1.97-8.4,3.49-.72.94-.03,2.3,1.15,2.3h14.49c1.19,0,1.87-1.36,1.15-2.3-1.17-1.52-5.23-3.49-8.4-3.49Z"/>
  </g>
</svg>