<?xml version="1.0" encoding="UTF-8"?>
<svg id="Layer_2" data-name="Layer 2" xmlns="http://www.w3.org/2000/svg" viewBox="0 0 40.57 34.33">
  <defs>
    <style>
      .cls-1 {
        fill: #17debc;
        stroke-width: 0px;
      }
    </style>
  </defs>
  <g id="Layer_1-2" data-name="Layer 1">
    <path class="cls-1" d="M34.33,0c-1.73,0-3.23.95-4.04,2.36,2.76,1.22,4.83,3.74,5.42,6.77,1.9-.59,3.3-2.35,3.3-4.45,0-2.58-2.1-4.68-4.68-4.68ZM26.53,4.68c-3.45,0-6.24,2.79-6.24,6.24s2.79,6.24,6.24,6.24,6.24-2.79,6.24-6.24-2.79-6.24-6.24-6.24ZM9.36,15.6c-.6,0-1.19.12-1.74.34l-7.62,2.78v12.48l6.59-2.86c.78-.34,1.66-.35,2.44-.03l14.14,5.78h0c.31.15.66.23,1.01.23.4,0,.8-.11,1.15-.31,0,0,0,0,0,0l14.02-7.79h0c.74-.42,1.2-1.2,1.2-2.04,0-1.29-1.05-2.34-2.34-2.34-.34,0-.68.08-.99.23h0s-10.71,4.46-10.71,4.46h-2.34c1.29,0,2.34-1.05,2.34-2.34,0-1.01-.65-1.91-1.62-2.22h0s-13.57-5.92-13.57-5.92h-.02c-.62-.29-1.29-.44-1.97-.44Z"/>
  </g>
</svg>