<?xml version="1.0" encoding="UTF-8"?>
<svg id="Layer_2" data-name="Layer 2" xmlns="http://www.w3.org/2000/svg" viewBox="0 0 40.57 40.57">
  <defs>
    <style>
      .cls-1 {
        fill: #17debc;
        stroke-width: 0px;
      }
    </style>
  </defs>
  <g id="Layer_1-2" data-name="Layer 1">
    <path class="cls-1" d="M20.29,0c-.44,0-.87.17-1.18.48L.66,15.56s-.04.03-.06.05l-.06.05h0c-.34.32-.54.77-.54,1.24,0,.93.76,1.69,1.69,1.69h1.69v18.59c0,1.87,1.51,3.38,3.38,3.38h27.05c1.87,0,3.38-1.51,3.38-3.38v-18.59h1.69c.93,0,1.69-.76,1.69-1.69,0-.47-.19-.92-.54-1.24l-.03-.02s-.08-.07-.12-.1L21.43.45c-.31-.29-.72-.45-1.15-.45Z"/>
  </g>
</svg>