<?xml version="1.0" encoding="UTF-8"?>
<svg id="Layer_2" data-name="Layer 2" xmlns="http://www.w3.org/2000/svg" viewBox="0 0 33.07 40.57">
  <defs>
    <style>
      .cls-1 {
        fill: #17debc;
        stroke-width: 0px;
      }
    </style>
  </defs>
  <g id="Layer_1-2" data-name="Layer 1">
    <path class="cls-1" d="M16.53,0C7.4,0,0,7.4,0,16.53c0,10.87,10.75,16.08,12.1,17.29,1.38,1.24,2.51,4.01,2.97,5.58.22.76.85,1.15,1.47,1.17.62-.02,1.24-.4,1.47-1.17.46-1.57,1.59-4.34,2.97-5.58,1.35-1.21,12.1-6.42,12.1-17.29C33.07,7.4,25.66,0,16.53,0ZM26.54,11.83c0,3.01-2.44,5.45-5.45,5.45s-5.45-2.44-5.45-5.45,2.44-5.45,5.45-5.45,5.45,2.44,5.45,5.45Z"/>
  </g>
</svg>