<?xml version="1.0" encoding="UTF-8"?>
<svg id="Layer_2" data-name="Layer 2" xmlns="http://www.w3.org/2000/svg" viewBox="0 0 40.57 36.06">
  <defs>
    <style>
      .cls-1 {
        fill: #17debc;
        stroke-width: 0px;
      }
    </style>
  </defs>
  <g id="Layer_1-2" data-name="Layer 1">
    <path class="cls-1" d="M3.01,0C1.34,0,0,1.34,0,3.01v30.05c0,1.66,1.34,3.01,3.01,3.01h21.04c1.66,0,3.01-1.34,3.01-3.01v-13.52h-10.52c-.83,0-1.5-.67-1.5-1.5s.67-1.5,1.5-1.5h10.52v-6.76c0-.4-.16-.78-.44-1.06L18.34.44c-.28-.28-.66-.44-1.06-.44H3.01ZM27.05,16.53v3.01h8.39l-3.45,3.45c-.6.57-.62,1.53-.04,2.12.57.6,1.53.62,2.12.04.01-.01.03-.03.04-.04l6.01-6.01c.59-.59.59-1.54,0-2.12l-6.01-6.01c-.28-.29-.67-.45-1.08-.45-.83,0-1.5.67-1.5,1.5,0,.41.16.79.45,1.08l3.45,3.45h-8.39Z"/>
  </g>
</svg>