<?xml version="1.0" encoding="UTF-8"?>
<svg id="Layer_2" data-name="Layer 2" xmlns="http://www.w3.org/2000/svg" viewBox="0 0 39.07 40.57">
  <defs>
    <style>
      .cls-1 {
        fill: #17debc;
        stroke-width: 0px;
      }
    </style>
  </defs>
  <g id="Layer_1-2" data-name="Layer 1">
    <path class="cls-1" d="M16.53,0c-1.66,0-3.01,1.34-3.01,3.01v.44c-4.34,1.29-7.51,5.31-7.51,10.08v4.14c0,4.08-1.62,8-4.51,10.88-.83,0-1.5.67-1.5,1.5s.67,1.5,1.5,1.5h13.61c-.06-.49-.09-.99-.09-1.5,0-6.96,5.26-12.69,12.02-13.44v-3.09c0-4.76-3.17-8.78-7.51-10.08v-.44c0-1.66-1.34-3.01-3.01-3.01ZM28.55,19.53c-5.81,0-10.52,4.71-10.52,10.52s4.71,10.52,10.52,10.52,10.52-4.71,10.52-10.52-4.71-10.52-10.52-10.52ZM28.55,24.04c.83,0,1.5.67,1.5,1.5v3.01h3.01c.83,0,1.5.67,1.5,1.5s-.67,1.5-1.5,1.5h-3.01v3.01c0,.83-.67,1.5-1.5,1.5s-1.5-.67-1.5-1.5v-3.01h-3.01c-.83,0-1.5-.67-1.5-1.5s.67-1.5,1.5-1.5h3.01v-3.01c0-.83.67-1.5,1.5-1.5ZM12.02,34.56c0,2.49,2.02,4.51,4.51,4.51.59,0,1.15-.12,1.66-.33-1.03-1.23-1.83-2.64-2.38-4.18h-3.79Z"/>
  </g>
</svg>