<?xml version="1.0" encoding="UTF-8"?>
<svg id="Layer_2" data-name="Layer 2" xmlns="http://www.w3.org/2000/svg" viewBox="0 0 40.57 41.07">
  <defs>
    <style>
      .cls-1 {
        fill: #17debc;
        stroke-width: 0px;
      }
    </style>
  </defs>
  <g id="Layer_1-2" data-name="Layer 1">
    <g>
      <path class="cls-1" d="M40.57,20.29C40.57,9.08,31.49,0,20.29,0S0,9.08,0,20.29c0,6.16,2.75,11.68,7.09,15.4-.37-2.63-.37-5.47.2-6.21,1.81-2.35,8.1-5,13-5s11.19,2.65,13,5c.57.74.57,3.58.2,6.21,4.34-3.72,7.09-9.24,7.09-15.4ZM27.63,17.13c0,4.05-3.29,7.34-7.34,7.34s-7.34-3.29-7.34-7.34v-1.22c0-4.05,3.29-7.34,7.34-7.34s7.34,3.29,7.34,7.34v1.22Z"/>
      <path class="cls-1" d="M20.29,24.97c-4.32,0-7.84-3.52-7.84-7.84v-1.22c0-4.32,3.52-7.84,7.84-7.84s7.84,3.52,7.84,7.84v1.22c0,4.32-3.52,7.84-7.84,7.84ZM20.29,9.07c-3.77,0-6.84,3.07-6.84,6.84v1.22c0,3.77,3.07,6.84,6.84,6.84s6.84-3.07,6.84-6.84v-1.22c0-3.77-3.07-6.84-6.84-6.84Z"/>
      <path class="cls-1" d="M20.29,41.07c-4.96,0-9.76-1.78-13.52-5.01l-.14-.12-.03-.19c-.28-1.94-.52-5.52.3-6.58,2.02-2.62,8.65-5.2,13.39-5.2s11.38,2.58,13.4,5.2c.82,1.07.57,4.64.3,6.58l-.03.19-.14.12c-3.76,3.23-8.57,5.01-13.53,5.01ZM7.55,35.42c3.56,3,8.07,4.65,12.73,4.65s9.17-1.65,12.73-4.65c.38-2.8.24-5.17-.13-5.65h0c-1.67-2.16-7.81-4.81-12.6-4.81s-10.94,2.64-12.6,4.81c-.37.48-.5,2.85-.13,5.65Z"/>
    </g>
  </g>
</svg>