<?xml version="1.0" encoding="UTF-8"?>
<svg id="Layer_2" data-name="Layer 2" xmlns="http://www.w3.org/2000/svg" viewBox="0 0 40.57 37.15">
  <defs>
    <style>
      .cls-1 {
        fill: #17debc;
        stroke-width: 0px;
      }
    </style>
  </defs>
  <g id="Layer_1-2" data-name="Layer 1">
    <path class="cls-1" d="M28.73,0c-2.18,0-4.04,1.42-4.75,3.38H1.71C.78,3.36.01,4.11,0,5.04c-.01.93.73,1.7,1.66,1.71.02,0,.03,0,.05,0h22.27c.7,1.95,2.57,3.38,4.75,3.38s4.04-1.42,4.75-3.38h5.38c.93.01,1.7-.73,1.71-1.66.01-.93-.73-1.7-1.66-1.71-.02,0-.03,0-.05,0h-5.38c-.7-1.95-2.57-3.38-4.75-3.38ZM28.73,3.38c.92,0,1.62.69,1.67,1.59,0,.06,0,.13,0,.19-.05.9-.75,1.59-1.67,1.59s-1.62-.69-1.67-1.59c0-.06,0-.13,0-.19.05-.9.75-1.59,1.67-1.59ZM15.22,13.51c-2.18,0-4.04,1.42-4.75,3.38H1.71c-.93-.01-1.7.73-1.71,1.66-.01.93.73,1.7,1.66,1.71.02,0,.03,0,.05,0h8.76c.7,1.95,2.57,3.38,4.75,3.38s4.04-1.42,4.75-3.38h18.89c.93.01,1.7-.73,1.71-1.66.01-.93-.73-1.7-1.66-1.71-.02,0-.03,0-.05,0h-18.89c-.7-1.95-2.57-3.38-4.75-3.38ZM15.22,16.88c.92,0,1.62.69,1.67,1.59,0,.06,0,.13,0,.19-.05.9-.75,1.59-1.67,1.59s-1.62-.69-1.67-1.59c0-.06,0-.13,0-.19.05-.9.75-1.59,1.67-1.59ZM21.97,27.01c-2.18,0-4.04,1.42-4.75,3.38H1.71c-.93-.01-1.7.73-1.71,1.66-.01.93.73,1.7,1.66,1.71.02,0,.03,0,.05,0h15.51c.7,1.95,2.57,3.38,4.75,3.38s4.04-1.42,4.75-3.38h12.14c.93.01,1.7-.73,1.71-1.66.01-.93-.73-1.7-1.66-1.71-.02,0-.03,0-.05,0h-12.14c-.7-1.95-2.57-3.38-4.75-3.38ZM21.97,30.39c.92,0,1.62.69,1.67,1.59,0,.06,0,.13,0,.19-.05.9-.75,1.59-1.67,1.59s-1.62-.69-1.67-1.59c0-.06,0-.13,0-.19.05-.9.75-1.59,1.67-1.59Z"/>
  </g>
</svg>