<?xml version="1.0" encoding="UTF-8"?>
<svg id="Layer_2" data-name="Layer 2" xmlns="http://www.w3.org/2000/svg" viewBox="0 0 40.57 40.57">
  <defs>
    <style>
      .cls-1 {
        fill: #17debc;
        stroke-width: 0px;
      }
    </style>
  </defs>
  <g id="Layer_1-2" data-name="Layer 1">
    <g>
      <path class="cls-1" d="M20.29,40.57c-.93,0-1.69-.76-1.69-1.69s.76-1.69,1.69-1.69,1.69.76,1.69,1.69-.76,1.69-1.69,1.69ZM13.11,39.16c-.21,0-.42-.06-.61-.14C5.16,35.97,0,28.72,0,20.29c0-4.3,1.34-8.3,3.63-11.58l-1.94-1.94h6.76v6.76l-2.38-2.38c-1.7,2.63-2.69,5.76-2.69,9.14,0,7.05,4.3,13.07,10.42,15.62.87.35,1.29,1.33.94,2.2-.27.66-.92,1.09-1.63,1.06ZM27.4,39.15c-.93,0-1.69-.76-1.69-1.69s.76-1.69,1.69-1.69,1.69.76,1.69,1.69-.76,1.69-1.69,1.69ZM32.12,33.81v-6.76l2.38,2.38c1.7-2.63,2.69-5.76,2.69-9.14,0-7.05-4.3-13.07-10.42-15.62-.87-.33-1.32-1.3-.99-2.18.33-.87,1.3-1.32,2.18-.99.04.01.07.03.11.05,7.34,3.06,12.5,10.31,12.5,18.74,0,4.3-1.34,8.3-3.63,11.58l1.94,1.94h-6.76ZM13.17,4.8c-.93,0-1.69-.76-1.69-1.69s.76-1.69,1.69-1.69,1.69.76,1.69,1.69-.76,1.69-1.69,1.69ZM20.29,3.38c-.93,0-1.69-.76-1.69-1.69s.76-1.69,1.69-1.69,1.69.76,1.69,1.69-.76,1.69-1.69,1.69Z"/>
      <g>
        <path class="cls-1" d="M16.83,27.25h16.08c0-5.08-5.36-3.63-6.03-5.81v-1.45c.3-.16,1.16-1.27,1.25-2.14.24-.02.61-.26.72-1.19.06-.5-.17-.78-.32-.87,0,0,.35-.73.35-1.61,0-1.76-.64-3.27-2.01-3.27,0,0-.48-1.09-2.01-1.09-2.84,0-4.02,1.98-4.02,4.36,0,.8.35,1.6.35,1.6-.14.09-.38.37-.32.87.11.93.48,1.17.72,1.19.09.87.95,1.98,1.25,2.14v1.45c-.67,2.18-6.03.72-6.03,5.8Z"/>
        <path class="cls-1" d="M18.76,8.56c-3.31,0-4.68,2.3-4.68,5.07,0,.93.41,1.87.41,1.87-.17.1-.44.43-.37,1.01.13,1.08.56,1.36.84,1.38.11,1.01,1.11,2.31,1.46,2.5v1.69c-.78,2.54-7.02.84-7.02,6.76h18.72c0-5.92-6.24-4.23-7.02-6.76v-1.69c.35-.19,1.35-1.48,1.46-2.49.28-.02.71-.3.84-1.38.07-.58-.2-.91-.37-1.01,0,0,.41-.85.41-1.87,0-2.05-.74-3.8-2.34-3.8,0,0-.55-1.27-2.34-1.27Z"/>
      </g>
    </g>
  </g>
</svg>