<?xml version="1.0" encoding="UTF-8"?>
<svg id="Layer_2" data-name="Layer 2" xmlns="http://www.w3.org/2000/svg" viewBox="0 0 37.67 39.55">
  <defs>
    <style>
      .cls-1 {
        fill: #17debc;
        stroke-width: 0px;
      }
    </style>
  </defs>
  <g id="Layer_1-2" data-name="Layer 1">
    <path class="cls-1" d="M30.22,24.66c-4.11,0-7.44,3.33-7.44,7.45s3.33,7.44,7.44,7.44,7.45-3.33,7.45-7.44-3.33-7.45-7.45-7.45ZM35.17,30.37l-6.25,5.92c-.17.16-.39.25-.62.25h-.07c-.25-.02-.49-.15-.64-.35l-2.4-3.06c-.31-.39-.24-.96.16-1.27.39-.3.95-.23,1.26.16l1.79,2.28,5.52-5.24c.37-.34.94-.33,1.28.03.34.36.33.94-.03,1.28ZM18.83,17.39c-.8,0-1.44.65-1.44,1.45v9.91c0,.8.64,1.45,1.44,1.45s1.45-.65,1.45-1.45v-9.91c0-.8-.64-1.45-1.45-1.45ZM1.61,16.2c-.07-.01-.13-.01-.19,0-.74.03-1.34.62-1.38,1.37C.01,17.99,0,18.41,0,18.84v10.14c-.01.8.63,1.46,1.43,1.47.8,0,1.45-.63,1.47-1.43v-10.18c0-.36.01-.72.03-1.08.07-.8-.53-1.5-1.32-1.56ZM18.83,11.59c-3.99,0-7.24,3.25-7.24,7.25v17.39c0,.8.65,1.45,1.45,1.45s1.45-.65,1.45-1.45v-17.39c0-2.4,1.95-4.35,4.34-4.35s4.35,1.95,4.35,4.35c0,1.59-.06,3.38-.19,5.31-.05.8.56,1.49,1.36,1.54.18.01.35-.03.52-.08l1.04-1.66c.11-1.84.17-3.57.17-5.11,0-4-3.25-7.25-7.25-7.25ZM10.59,10.57c-.32-.25-.71-.34-1.07-.3-.37.05-.72.23-.97.55-1.8,2.31-2.76,5.08-2.76,8.02v14.49c0,.8.65,1.45,1.45,1.45s1.45-.65,1.45-1.45v-14.49c0-2.29.74-4.44,2.15-6.24.49-.63.38-1.54-.25-2.03ZM35.36,9.79c-.29-.52-.86-.8-1.42-.74-.19.01-.37.07-.55.17-.7.38-.96,1.26-.57,1.96,1.28,2.34,1.95,4.98,1.95,7.66v4.83l2.9,4.64v-9.47c0-3.16-.8-6.29-2.31-9.05ZM18.83,5.8c-1.49,0-2.95.25-4.34.74-.75.27-1.15,1.09-.88,1.85.26.75,1.09,1.15,1.85.88,1.08-.38,2.21-.57,3.37-.57,5.6,0,10.15,4.55,10.15,10.14v5.22c.46-.16.94-.27,1.45-.27s.98.11,1.44.27v-5.22c0-7.19-5.84-13.04-13.04-13.04ZM30.93,4.4C27.66,1.65,23.43,0,18.83,0,11.05,0,4.34,4.74,1.48,11.5c-.33.74,0,1.59.73,1.92.74.32,1.59-.01,1.92-.74,0-.01.01-.03.02-.05C6.57,6.92,12.22,2.9,18.83,2.9c3.91,0,7.46,1.4,10.23,3.72.62.51,1.53.43,2.05-.18.51-.62.43-1.53-.18-2.04Z"/>
  </g>
</svg>