<?xml version="1.0" encoding="UTF-8"?>
<svg id="Layer_2" data-name="Layer 2" xmlns="http://www.w3.org/2000/svg" viewBox="0 0 36 26.03">
  <defs>
    <style>
      .cls-1 {
        fill: #17debc;
        stroke-width: 0px;
      }
    </style>
  </defs>
  <g id="Layer_1-2" data-name="Layer 1">
    <path class="cls-1" d="M22.89,0c-.39.03-.78.16-1.21.39-1.91,1.02-8.86,4.97-8.87,4.98-.98.58-1.31,1.87-.74,2.86.55.93,1.73,1.28,2.68.82.1-.05,3.47-1.77,5.02-2.6,1.66-.88,2.68.13,2.68.13,0,0,5.98,5.96,7.66,7.57,1.09,1.05,2.59.54,3.07.48s2.81-.52,2.81-.52V3.21s-3.57.83-5.67,1.25c-.64.13-1.43-.3-1.43-.3,0,0-1.74-1.49-3.68-3.12C24.25.22,23.55-.04,22.89,0ZM13.54.14c-2.21,0-6.79,3.03-6.79,3.03,0,0-1.3.84-3.16.09L0,2v12.46s1.03.32,1.95.69c.21-.59.53-1.15,1-1.6,1.53-1.45,4.06-1.47,5.45-.04.42.43.71.99.87,1.56.56.17,1.06.44,1.47.87.42.43.71.95.87,1.51.56.17,1.06.49,1.47.91.46.48.76,1.07.91,1.69.58.17,1.13.47,1.56.91.83.85,1.13,2.03.95,3.16,0,0,.5.59.82.91.62.62,1.63.62,2.25,0,.62-.62.62-1.63,0-2.25-.02-.02-2.28-2.3-2.08-2.51.21-.21,3.07,2.76,3.07,2.77.61.61,1.6.61,2.21,0,.59-.6.61-1.55.04-2.16-.01-.01-2.59-2.78-2.42-2.94.18-.18,3.28,3.03,3.29,3.03.62.57,1.6.56,2.21-.04s.58-1.58,0-2.21c0,0-2.54-2.74-2.38-2.9s2.81,2.46,2.81,2.47c.62.62,1.59.62,2.21,0s.62-1.63,0-2.25c-.01-.01-3.45-3.4-6.92-6.88,0,0-1.01-1.08-2.38-.48-.96.42-2.22,1.03-3.16,1.47-1.03.54-1.94.69-2.12.69-1.99,0-3.59-1.61-3.59-3.59,0-1.29.67-2.43,1.69-3.07,1.43-1,4.76-2.73,4.76-2.73,0,0-1.04-1.3-3.25-1.3ZM5.71,14.11c-.55.02-1.11.22-1.56.65-.89.85-1.49,2.43-.69,3.33.79.9,1.73.33,2.42.17-.19.69-.8,1.35-.09,2.25.71.9,1.73.33,2.42.17-.19.69-.77,1.41-.09,2.25s1.85.36,2.6.13c-.29.74-.92,1.57-.13,2.47.79.9,2.61.47,3.5-.39.89-.85.96-2.22.17-3.03-.54-.55-1.34-.67-2.08-.43.29-.74.21-1.6-.35-2.16-.5-.51-1.25-.63-1.95-.48.19-.69.11-1.43-.39-1.95-.5-.51-1.25-.63-1.95-.48.19-.69.11-1.43-.39-1.95-.39-.41-.92-.58-1.47-.56Z"/>
  </g>
</svg>