<svg width="860" height="564" viewBox="0 0 860 564" fill="none" xmlns="http://www.w3.org/2000/svg">
<path d="M267.7 367.417L259.29 357.975C258.808 357.442 257.986 357.386 257.439 357.864L247.974 366.231C247.44 366.711 247.385 367.529 247.866 368.074L256.276 377.515C256.758 378.049 257.579 378.105 258.125 377.627L267.59 369.26C268.137 368.782 268.18 367.962 267.7 367.417Z" fill="#BFE7FF"/>
<path d="M326.39 345.09L323.56 363.761C323.432 364.579 324.239 365.215 325.008 364.935L342.17 358.634C342.94 358.352 343.124 357.349 342.498 356.803L328.153 344.431C327.502 343.881 326.498 344.245 326.377 345.088L326.39 345.09Z" fill="#BFE7FF"/>
<path d="M295.296 388.64C296.174 383.526 292.745 378.671 287.633 377.793C282.522 376.915 277.668 380.346 276.789 385.46C275.91 390.574 279.34 395.429 284.452 396.308C289.563 397.186 294.417 393.754 295.296 388.64Z" fill="#FAE380"/>
<path d="M273.073 327.05C276.023 317.017 253.711 317.445 258.408 304.198C262.335 293.139 262.91 278 262.91 278C262.91 278 266.427 250.796 272.31 240.311C278.193 229.826 291.042 225.366 298.156 216.649C305.964 207.11 313.223 182.093 331.113 185.167" stroke="#384248" stroke-linecap="round" stroke-linejoin="round"/>
<path d="M329.763 188.397L329.982 181.808C330.011 180.956 330.724 180.288 331.576 180.316L342.558 180.682C343.409 180.711 344.077 181.424 344.049 182.275L343.829 188.865C343.8 189.716 343.086 190.384 342.235 190.356L331.252 189.99C330.401 189.962 329.733 189.249 329.763 188.397Z" fill="#FAE380" stroke="#384248" stroke-miterlimit="10"/>
<path d="M339.099 190.868L339.462 179.986C339.52 178.243 340.979 176.879 342.721 176.937L353.405 177.292C355.147 177.35 356.512 178.81 356.454 180.551L356.091 191.433C356.033 193.176 354.573 194.541 352.832 194.482L342.147 194.128C340.406 194.069 339.041 192.611 339.099 190.868Z" fill="#FAE380" stroke="#384248" stroke-miterlimit="10"/>
<path d="M371.901 181.515C370.246 181.459 368.95 180.072 369.004 178.418C369.06 176.763 370.446 175.466 372.1 175.52L389.161 176.088C390.816 176.144 392.112 177.529 392.057 179.185C392.002 180.84 390.615 182.137 388.962 182.081L371.901 181.515Z" fill="#EAF5FB" stroke="#384248" stroke-miterlimit="10"/>
<path d="M371.36 197.517C369.705 197.463 368.409 196.076 368.465 194.421C368.519 192.767 369.905 191.47 371.56 191.524L388.621 192.092C390.275 192.146 391.572 193.533 391.516 195.188C391.461 196.843 390.076 198.141 388.421 198.085L371.36 197.517Z" fill="#EAF5FB" stroke="#384248" stroke-miterlimit="10"/>
<path d="M343.948 185.003L343.91 186.141C343.608 195.202 350.719 202.807 359.776 203.108L374.699 203.604L375.834 169.625L360.909 169.129C351.854 168.827 344.251 175.944 343.948 185.003Z" fill="#FAE380" stroke="#384248" stroke-miterlimit="10"/>
<path d="M269.604 332.586C269.642 332.366 267.849 334.428 267.475 334.8C265.167 337.092 262.425 338.725 259.985 340.882C257.767 342.84 256.812 344.849 260.674 344.638C263.89 344.462 263.696 345.194 262.375 347.602C260.937 350.221 259.284 352.729 257.823 355.34C257.505 355.908 254.752 360.743 255.701 360.456" stroke="#384248" stroke-linecap="round"/>
<path d="M277.898 325.302C278.588 329.819 281.618 334.105 283.083 338.397C283.721 340.265 285.076 335.77 285.539 335.09C286.241 334.057 286.805 332.489 287.204 331.299C287.569 330.208 288.751 331.416 289.479 331.852C294.45 334.824 299.084 338.27 304.202 341.013" stroke="#384248" stroke-linecap="round"/>
<path d="M261.916 326.705C260.023 327.132 258.059 327.68 256.27 328.221" stroke="#384248" stroke-linecap="round"/>
<path d="M285.32 318.293C286.105 317.847 287.068 317.634 287.942 317.501" stroke="#384248" stroke-linecap="round"/>
<path d="M276.925 345.451C276.885 346.827 276.816 348.836 277.372 350.087" stroke="#384248" stroke-linecap="round"/>
<path d="M460.85 390.032V382.562C460.85 382.017 460.562 381.524 460.097 381.246L453.678 377.511C453.213 377.244 452.637 377.244 452.172 377.511L445.753 381.246C445.288 381.511 445 382.017 445 382.562V390.032C445 390.576 445.288 391.07 445.753 391.348L452.172 395.083C452.637 395.349 453.213 395.349 453.678 395.083L460.097 391.348C460.562 391.082 460.85 390.576 460.85 390.032Z" fill="#FAE380"/>
<path d="M495.819 430.202L487.474 423.549C486.996 423.175 486.305 423.246 485.918 423.721L479.24 432.035C478.864 432.511 478.936 433.199 479.413 433.584L487.759 440.235C488.237 440.61 488.928 440.54 489.313 440.064L495.991 431.75C496.378 431.275 496.297 430.587 495.819 430.202Z" fill="#BFE7FF"/>
<path d="M400.011 433.242L400.326 449.178C400.336 449.877 401.098 450.292 401.698 449.948L415.075 442.253C415.675 441.908 415.684 441.048 415.085 440.683L401.384 432.442C400.763 432.077 399.98 432.523 400 433.242H400.011Z" fill="#FAE380"/>
<path d="M771.499 289.307C750.789 289.307 734 272.294 734 251.307C734 230.321 750.789 213.307 771.499 213.307C792.21 213.307 809 230.321 809 251.307C809 272.294 792.21 289.307 771.499 289.307Z" stroke="#384248" stroke-linecap="round" stroke-linejoin="round"/>
<path d="M771.813 378.353C751.049 378.353 734.215 359.226 734.215 335.633C734.215 312.039 751.049 292.913 771.813 292.913C792.579 292.913 809.412 312.039 809.412 335.633C809.412 359.226 792.579 378.353 771.813 378.353Z" stroke="#384248" stroke-linecap="round" stroke-linejoin="round"/>
<path d="M771.499 459.304C750.789 459.304 734 442.962 734 422.804C734 402.646 750.789 386.304 771.499 386.304C792.21 386.304 809 402.646 809 422.804C809 442.962 792.21 459.304 771.499 459.304Z" stroke="#384248" stroke-linecap="round" stroke-linejoin="round"/>
<path d="M578.912 485.912C553.991 485.179 558.025 497.17 528.634 495.924C513.801 495.291 497.285 482.627 479.386 481.638C463.068 480.747 445.347 491.551 428.832 490.343C411.308 489.077 395.346 475.8 380.196 474.158C358.895 471.862 346.879 484.685 336.614 481.638C319.782 476.651 324.99 459.773 356.601 459.773C369.14 457.478 383.618 443.33 404.168 440.817M411 437.305L415.5 411.305M437.5 416.805L421.5 440.817M415.5 449.305L437.5 454.305" stroke="#384248" stroke-linecap="round" stroke-linejoin="round"/>
<path d="M768 244.306H554V444.306H768V244.306Z" fill="#384248" stroke="#384248"/>
<path d="M521.184 277.7V321.168C521.184 327.935 526.764 333.434 533.633 333.434H780.714C787.599 333.434 793.184 327.879 793.184 321.031V277.838C793.184 270.989 787.599 265.434 780.714 265.434H533.633C526.764 265.434 521.184 270.915 521.184 277.7Z" fill="white" stroke="#384248"/>
<path d="M567.109 325.873L566.414 334.837H656.414L655.719 325.873C655.321 320.772 651.305 316.837 646.475 316.837H576.353C571.523 316.837 567.507 320.752 567.109 325.873Z" fill="#384248" stroke="#384248"/>
<path d="M760.504 287.745C760.504 291.336 763.414 294.248 767.003 294.248C770.593 294.248 773.503 291.336 773.503 287.745C773.503 284.153 770.593 281.243 767.003 281.243C763.414 281.243 760.504 284.153 760.504 287.745Z" fill="#384248" stroke="#384248"/>
<path d="M714.438 287.745C714.438 291.336 717.348 294.248 720.937 294.248C724.527 294.248 727.437 291.336 727.437 287.745C727.437 284.153 724.527 281.243 720.937 281.243C717.348 281.243 714.438 284.153 714.438 287.745Z" fill="#FAE380" stroke="#384248"/>
<path d="M737.641 287.745C737.641 291.336 740.551 294.248 744.14 294.248C747.731 294.248 750.641 291.336 750.641 287.745C750.641 284.153 747.731 281.243 744.14 281.243C740.551 281.243 737.641 284.153 737.641 287.745Z" fill="#BFE7FF" stroke="#384248"/>
<path d="M521.184 202.509V245.977C521.184 252.743 526.764 258.243 533.633 258.243H780.714C787.599 258.243 793.184 252.689 793.184 245.839V202.647C793.184 195.798 787.599 190.243 780.714 190.243H533.633C526.764 190.243 521.184 195.724 521.184 202.509Z" fill="white" stroke="#384248"/>
<path d="M567.109 248.705L566.414 257.667H656.414L655.719 248.705C655.321 243.603 651.305 239.667 646.475 239.667H576.353C571.523 239.667 567.507 243.582 567.109 248.705Z" fill="#384248" stroke="#384248"/>
<path d="M760.504 212.555C760.504 216.146 763.414 219.057 767.003 219.057C770.593 219.057 773.503 216.146 773.503 212.555C773.503 208.964 770.593 206.052 767.003 206.052C763.414 206.052 760.504 208.964 760.504 212.555Z" fill="#384248" stroke="#384248"/>
<path d="M714.438 212.555C714.438 216.146 717.348 219.057 720.937 219.057C724.527 219.057 727.437 216.146 727.437 212.555C727.437 208.964 724.527 206.052 720.937 206.052C717.348 206.052 714.438 208.964 714.438 212.555Z" fill="#FAE380" stroke="#384248"/>
<path d="M737.641 212.555C737.641 216.146 740.551 219.057 744.14 219.057C747.731 219.057 750.641 216.146 750.641 212.555C750.641 208.964 747.731 206.052 744.14 206.052C740.551 206.052 737.641 208.964 737.641 212.555Z" fill="#BFE7FF" stroke="#384248"/>
<path d="M521.184 354.869V398.338C521.184 405.104 526.764 410.603 533.633 410.603H780.714C787.599 410.603 793.184 405.049 793.184 398.2V355.006C793.184 348.158 787.599 342.603 780.714 342.603H533.633C526.764 342.603 521.184 348.083 521.184 354.869Z" fill="white" stroke="#384248"/>
<path d="M567.109 401.064L566.414 410.027H656.414L655.719 401.064C655.321 395.963 651.305 392.027 646.475 392.027H576.353C571.523 392.027 567.507 395.942 567.109 401.064Z" fill="#384248" stroke="#384248"/>
<path d="M760.504 362.936C760.504 366.527 763.414 369.438 767.003 369.438C770.593 369.438 773.503 366.527 773.503 362.936C773.503 359.343 770.593 356.433 767.003 356.433C763.414 356.433 760.504 359.343 760.504 362.936Z" fill="#384248" stroke="#384248"/>
<path d="M714.438 362.936C714.438 366.527 717.348 369.438 720.937 369.438C724.527 369.438 727.437 366.527 727.437 362.936C727.437 359.343 724.527 356.433 720.937 356.433C717.348 356.433 714.438 359.343 714.438 362.936Z" fill="#FAE380" stroke="#384248"/>
<path d="M737.641 362.936C737.641 366.527 740.551 369.438 744.14 369.438C747.731 369.438 750.641 366.527 750.641 362.936C750.641 359.343 747.731 356.433 744.14 356.433C740.551 356.433 737.641 359.343 737.641 362.936Z" fill="#BFE7FF" stroke="#384248"/>
<path d="M521.184 430.06V473.527C521.184 480.293 526.764 485.793 533.633 485.793H780.714C787.599 485.793 793.184 480.239 793.184 473.39V430.197C793.184 423.348 787.599 417.793 780.714 417.793H533.633C526.764 417.793 521.184 423.275 521.184 430.06Z" fill="white" stroke="#384248"/>
<path d="M567.109 476.255L566.414 485.218H656.414L655.719 476.255C655.321 471.154 651.305 467.218 646.475 467.218H576.353C571.523 467.218 567.507 471.134 567.109 476.255Z" fill="#384248" stroke="#384248"/>
<path d="M760.504 440.105C760.504 443.696 763.414 446.608 767.003 446.608C770.593 446.608 773.503 443.696 773.503 440.105C773.503 436.514 770.593 433.603 767.003 433.603C763.414 433.603 760.504 436.514 760.504 440.105Z" fill="#384248" stroke="#384248"/>
<path d="M714.438 440.105C714.438 443.696 717.348 446.608 720.937 446.608C724.527 446.608 727.437 443.696 727.437 440.105C727.437 436.514 724.527 433.603 720.937 433.603C717.348 433.603 714.438 436.514 714.438 440.105Z" fill="#FAE380" stroke="#384248"/>
<path d="M737.641 440.105C737.641 443.696 740.551 446.608 744.14 446.608C747.731 446.608 750.641 443.696 750.641 440.105C750.641 436.514 747.731 433.603 744.14 433.603C740.551 433.603 737.641 436.514 737.641 440.105Z" fill="#BFE7FF" stroke="#384248"/>
<path d="M407.929 291.55L455.116 264.012C455.875 263.578 455.13 262.438 454.371 262.873L407.185 290.411C406.426 290.845 407.17 291.984 407.929 291.55Z" fill="#384248"/>
<path d="M427.004 244.664C444.746 227.719 463.072 211.41 481.981 195.737C487.281 191.346 492.628 186.995 498.022 182.684C498.711 182.142 497.967 181.003 497.278 181.545C478.011 196.859 459.335 212.834 441.249 229.472C436.129 234.186 431.042 238.95 425.987 243.764C425.362 244.357 426.376 245.274 427.004 244.664Z" fill="#384248"/>
<path d="M747.137 190.261C762.251 175.827 777.862 161.933 793.971 148.582C798.486 144.841 803.041 141.134 807.636 137.462C808.222 137.001 807.588 136.03 807.002 136.492C790.589 149.537 774.679 163.146 759.272 177.319C754.911 181.335 750.577 185.394 746.271 189.495C745.738 189.999 746.602 190.781 747.137 190.261Z" fill="#384248"/>
<path d="M846.138 178.54L846.649 172.588C846.686 172.155 846.487 171.741 846.131 171.487L841.211 168.067C840.854 167.824 840.389 167.784 839.996 167.963L834.565 170.495C834.172 170.675 833.905 171.059 833.868 171.492L833.357 177.444C833.32 177.878 833.519 178.292 833.875 178.545L838.795 181.966C839.152 182.209 839.617 182.249 840.01 182.07L845.441 179.537C845.834 179.357 846.101 178.974 846.138 178.54Z" fill="#FAE380"/>
<path fill-rule="evenodd" clip-rule="evenodd" d="M174.796 254.015L174.999 254.131C175.137 254.211 175.345 254.33 175.616 254.487C176.159 254.799 176.954 255.26 177.955 255.844C179.959 257.013 182.781 258.675 186.048 260.641C192.613 264.593 200.847 269.698 207.814 274.471C214.133 278.799 222.299 280.23 229.927 277.653L260.43 267.348C265.614 265.596 268.397 259.974 266.646 254.79C264.894 249.606 259.272 246.823 254.088 248.574L223.584 258.879C222.227 259.338 220.519 259.155 219.013 258.123C211.572 253.026 202.953 247.688 196.267 243.664C192.909 241.642 190.007 239.934 187.942 238.729C186.909 238.126 186.084 237.649 185.515 237.32C185.23 237.156 185.01 237.029 184.859 236.943L184.622 236.807C184.622 236.807 184.62 236.806 179.708 245.411L184.62 236.806C179.868 234.093 173.817 235.747 171.104 240.499C168.391 245.251 170.044 251.302 174.796 254.015Z" fill="#384248"/>
<path fill-rule="evenodd" clip-rule="evenodd" d="M174.796 254.015C174.796 254.015 174.796 254.015 174.796 254.015L174.872 254.058L175.114 254.197C175.329 254.321 175.65 254.506 176.065 254.746C176.895 255.225 178.099 255.925 179.588 256.8L189.625 239.714C188.093 238.814 186.848 238.091 185.984 237.591C185.552 237.341 185.215 237.147 184.984 237.014L184.718 236.862L184.621 236.807C184.621 236.807 184.62 236.806 179.708 245.411L184.621 236.807C179.869 234.094 173.817 235.747 171.104 240.499C168.391 245.251 170.044 251.302 174.796 254.015ZM181.186 257.741C183.86 259.321 187.175 261.305 190.759 263.503L201.12 246.612C197.425 244.345 194.014 242.305 191.268 240.682L181.186 257.741ZM192.343 264.478C195.404 266.369 198.603 268.384 201.726 270.415L212.529 253.803C209.249 251.67 205.916 249.571 202.756 247.619L192.343 264.478ZM203.265 271.421C204.825 272.447 206.35 273.468 207.814 274.471C210.527 276.329 213.56 277.645 216.741 278.346L221.009 258.996C220.327 258.845 219.643 258.555 219.013 258.123C217.431 257.039 215.8 255.948 214.152 254.864L203.265 271.421ZM220.006 278.844C223.289 279.124 226.666 278.754 229.927 277.653L234.284 276.18L227.942 257.407L223.584 258.879C222.993 259.079 222.354 259.156 221.689 259.1L220.006 278.844ZM235.737 275.69L244.452 272.745L238.11 253.972L229.395 256.916L235.737 275.69ZM245.905 272.255L254.62 269.311L248.278 250.537L239.562 253.481L245.905 272.255ZM256.073 268.82L260.43 267.348C265.614 265.596 268.397 259.974 266.646 254.79C264.894 249.606 259.272 246.823 254.088 248.574L249.73 250.046L256.073 268.82Z" fill="#BFE7FF"/>
<path fill-rule="evenodd" clip-rule="evenodd" d="M256.344 256.938C253.256 253.185 253.795 247.64 257.548 244.552L265.87 237.669C267.747 236.125 270.52 236.395 272.064 238.271C273.608 240.148 273.338 242.92 271.462 244.464L266.365 248.658C265.427 249.43 265.292 250.816 266.064 251.754C266.836 252.693 268.223 252.827 269.161 252.055L274.257 247.862C276.134 246.318 278.907 246.588 280.451 248.464C281.995 250.341 281.725 253.113 279.849 254.657L271.526 261.54C267.773 264.628 262.227 264.089 259.139 260.336L256.344 256.938Z" fill="#384248"/>
<path d="M100.214 271.59C103.104 303.833 119.718 322.03 138.454 324.792C157.191 327.554 178.349 314.925 190.42 284.887L195.558 272.101C203.425 252.526 190.92 230.744 170.048 227.668L136.229 222.682C115.358 219.606 97.0998 236.852 98.9834 257.865L100.214 271.59Z" fill="white" stroke="#384248" stroke-width="0.886858"/>
<ellipse cx="19.9687" cy="19.9688" rx="19.9687" ry="19.9688" transform="matrix(0.970407 0.241476 -0.241479 0.970406 145.615 243.069)" fill="#FAE380"/>
<path fill-rule="evenodd" clip-rule="evenodd" d="M160.067 254.985C159.616 254.872 159.156 255.166 159.038 255.64L153.804 276.671C153.686 277.145 153.956 277.62 154.406 277.732C154.856 277.844 155.317 277.551 155.435 277.077L160.668 256.046C160.786 255.572 160.517 255.097 160.067 254.985ZM168.939 259.192C168.489 259.08 168.028 259.374 167.91 259.848L163.223 278.682C163.105 279.156 163.375 279.631 163.825 279.743C164.275 279.855 164.736 279.561 164.854 279.087L169.541 260.254C169.659 259.78 169.389 259.304 168.939 259.192ZM163.565 260.855C163.115 260.743 162.654 261.037 162.536 261.511L159.412 274.067C159.294 274.541 159.563 275.016 160.014 275.128C160.464 275.24 160.925 274.946 161.043 274.472L164.167 261.916C164.285 261.442 164.016 260.967 163.565 260.855ZM153.542 260.028C153.092 259.916 152.631 260.209 152.513 260.683L149.935 271.042C149.817 271.516 150.087 271.991 150.537 272.103C150.987 272.215 151.448 271.922 151.566 271.447L154.144 261.089C154.262 260.615 153.992 260.14 153.542 260.028ZM172.282 265.691C171.831 265.579 171.371 265.872 171.253 266.346L169.066 275.135C168.948 275.609 169.217 276.085 169.667 276.197C170.118 276.309 170.578 276.015 170.696 275.541L172.883 266.752C173.001 266.278 172.732 265.803 172.282 265.691ZM148.168 261.69C147.718 261.578 147.257 261.872 147.139 262.346L146.124 266.427C146.006 266.901 146.275 267.376 146.726 267.488C147.176 267.6 147.637 267.306 147.755 266.832L148.77 262.752C148.888 262.278 148.619 261.802 148.168 261.69Z" fill="#384248"/>
<path d="M101.497 125.953C106.678 108.482 118.655 88.7502 140.391 83.7913" stroke="#384248" stroke-width="0.886858" stroke-linejoin="round"/>
<ellipse cx="7.41644" cy="7.8527" rx="7.41644" ry="7.8527" transform="matrix(0.958738 0.28429 -0.284287 0.958739 138.101 73.1001)" fill="#FAE380"/>
<path d="M264.646 175.733C266.633 169.034 262.813 161.993 256.114 160.007C249.415 158.02 242.374 161.84 240.387 168.539L230.714 201.164C228.727 207.863 232.547 214.904 239.246 216.89C245.945 218.877 252.986 215.056 254.973 208.357L264.646 175.733Z" fill="#384248"/>
<path d="M256.562 169.237L273.071 120.166" stroke="#384248" stroke-width="0.886858" stroke-linejoin="round"/>
<ellipse cx="7.41646" cy="7.8527" rx="7.41646" ry="7.8527" transform="matrix(-0.958739 -0.284289 -0.284287 0.958739 282.568 113.139)" fill="#FAE380"/>
<path d="M228.862 130.803C249.326 136.871 260.996 158.38 254.928 178.843L247.401 204.23C241.333 224.694 219.825 236.364 199.361 230.296L128.82 209.379C108.357 203.311 96.6864 181.802 102.754 161.338L110.282 135.952C116.35 115.488 137.858 103.818 158.322 109.886L228.862 130.803Z" fill="white" stroke="#384248" stroke-width="0.886858"/>
<path d="M100.476 125.347C102.363 118.981 109.054 115.351 115.42 117.239C121.785 119.126 125.415 125.817 123.528 132.182L114.335 163.183C112.448 169.549 105.757 173.179 99.3917 171.292C93.0261 169.404 89.3959 162.713 91.2834 156.348L100.476 125.347Z" fill="#384248"/>
<path d="M238.387 195.606C257.884 176.29 238.486 143.771 212.139 151.603L204.397 153.904C196.737 156.181 188.443 153.722 183.262 147.637L178.026 141.487C160.207 120.559 126.218 137.248 132.034 164.069L133.798 172.204C137.789 190.608 151.527 205.391 169.627 210.758L181.421 214.255C199.52 219.622 219.096 214.717 232.474 201.464L238.387 195.606Z" fill="url(#paint0_linear_9836_111060)"/>
<ellipse cx="6.54131" cy="9.15783" rx="6.54131" ry="9.15783" transform="matrix(-0.958738 -0.28429 -0.284287 0.958739 223.362 176.859)" fill="#384248"/>
<ellipse cx="6.54131" cy="9.15783" rx="6.54131" ry="9.15783" transform="matrix(-0.958738 -0.28429 -0.284287 0.958739 168.174 160.496)" fill="#384248"/>
<path d="M184.501 198.7C183.689 198.656 183.058 198.298 182.611 197.692C182.214 197.154 182.153 196.395 182.359 195.528C182.565 194.663 183.031 193.719 183.643 192.847C184.255 191.976 185.008 191.185 185.78 190.623C186.555 190.057 187.328 189.739 187.986 189.774L188.524 189.802C189.164 189.836 189.618 190.202 189.894 190.79C190.172 191.384 190.262 192.201 190.154 193.092C189.936 194.877 188.929 196.888 187.196 197.902C186.241 198.46 185.319 198.743 184.501 198.7Z" fill="#384248" stroke="#384248" stroke-width="0.33505"/>
<path fill-rule="evenodd" clip-rule="evenodd" d="M186.02 250.584C184.381 248.555 181.407 248.239 179.378 249.878C175.626 252.909 170.127 252.325 167.095 248.573C164.064 244.821 164.648 239.322 168.4 236.29C170.429 234.651 170.745 231.677 169.106 229.648C167.467 227.619 164.493 227.303 162.464 228.942C154.654 235.252 153.437 246.699 159.747 254.51C166.057 262.32 177.504 263.536 185.314 257.226C187.343 255.587 187.659 252.613 186.02 250.584Z" fill="#384248"/>
<path fill-rule="evenodd" clip-rule="evenodd" d="M166.367 249.801C169.197 253.887 168.179 259.494 164.093 262.324L129.731 286.123C121.025 292.154 108.98 287.506 106.58 277.191L101.386 254.861C100.26 250.02 103.272 245.182 108.113 244.056C112.955 242.93 117.792 245.942 118.918 250.783L123.112 268.812L153.844 247.527C157.93 244.697 163.537 245.715 166.367 249.801Z" fill="#384248"/>
<path fill-rule="evenodd" clip-rule="evenodd" d="M164.093 262.33L160.582 264.763L150.333 249.965L153.845 247.533L164.093 262.33ZM159.021 265.844L151.998 270.708L141.749 255.911L148.772 251.046L159.021 265.844ZM107.191 239.437C112.036 238.327 116.864 241.354 117.974 246.199L118.815 249.869L101.27 253.889L100.429 250.22C99.3186 245.375 102.346 240.547 107.191 239.437ZM150.437 271.789L143.414 276.654L133.165 261.856L140.188 256.992L150.437 271.789ZM103.325 262.86L101.643 255.52L119.189 251.5L120.871 258.84L103.325 262.86ZM141.853 277.734L134.83 282.599L124.581 267.802L131.604 262.937L141.853 277.734ZM105.381 271.831L103.699 264.491L121.244 260.471L122.926 267.81L105.381 271.831ZM133.269 283.68L129.757 286.112C126.24 288.548 122.103 289.246 118.327 288.501L121.245 273.706L113.427 286.602C110.136 284.606 107.551 281.302 106.595 277.131L105.755 273.462L121.677 269.813L123.02 268.883L133.269 283.68Z" fill="#BFE7FF"/>
<path d="M191.821 68.3924L192.903 54.7146C192.984 53.6983 191.486 53.5413 191.406 54.5576L190.323 68.2355C190.243 69.2518 191.74 69.4087 191.821 68.3924Z" fill="#384248"/>
<path d="M211.864 74.5773C213.839 69.6481 215.429 64.5548 216.619 59.3427C216.838 58.3756 215.369 57.8498 215.141 58.8213C213.953 64.0363 212.364 69.1327 210.39 74.0652C210.021 74.9791 211.494 75.4913 211.864 74.5773Z" fill="#384248"/>
<path d="M231.515 87.9374L239.408 77.2736C239.978 76.4873 238.612 75.6607 238.037 76.4381L230.158 87.1064C229.583 87.8838 230.94 88.7148 231.515 87.9374Z" fill="#384248"/>
<defs>
<linearGradient id="paint0_linear_9836_111060" x1="196.342" y1="142.298" x2="175.523" y2="212.507" gradientUnits="userSpaceOnUse">
<stop stop-color="#7EC9F7"/>
<stop offset="0.234313" stop-color="#BFE7FF"/>
<stop offset="1" stop-color="#E1F4FF"/>
</linearGradient>
</defs>
</svg>
