<svg width="72" height="43" viewBox="0 0 72 43" fill="none" xmlns="http://www.w3.org/2000/svg">
<g clip-path="url(#clip0_14_720)">
<path d="M68.1813 0.888589L26.064 0.67419C24.6474 0.666979 23.4931 1.82069 23.4858 3.25107L23.3001 39.7318C23.2929 41.1622 24.4353 42.3276 25.8519 42.3348L67.9692 42.5492C69.3858 42.5564 70.5401 41.4027 70.5474 39.9723L70.7331 3.49159C70.7404 2.0612 69.5979 0.8958 68.1813 0.888589Z" fill="white"/>
<path d="M63.8528 17.8545L57.9932 17.8247L57.8675 42.5011L63.7271 42.5309L63.8528 17.8545Z" fill="#FAE380"/>
<path d="M54.5276 30.7164L48.668 30.6865L48.6081 42.4506L54.4677 42.4804L54.5276 30.7164Z" fill="#FAE380"/>
<path d="M45.2942 26.2813L39.4346 26.2515L39.3523 42.4041L45.2119 42.4339L45.2942 26.2813Z" fill="#FAE380"/>
<path d="M35.9846 35.9546L30.125 35.9248L30.0923 42.3565L35.9519 42.3863L35.9846 35.9546Z" fill="#FAE380"/>
<path d="M60.6937 5.95004L60.6899 6.69249L63.3832 6.7062L53.2052 16.3036L53.1679 16.3437C52.4428 17.0768 51.6576 17.7467 50.8207 18.3462C50.2 18.8001 49.5364 19.191 48.8396 19.5131C48.2048 19.8189 47.5138 19.9879 46.8107 20.0093C46.3252 20.0154 45.8478 19.8833 45.4332 19.6282C44.9355 19.2978 44.5336 18.84 44.2686 18.3013C44.0435 17.6362 43.6542 17.0399 43.1374 16.5689C42.7013 16.2073 42.1541 16.0102 41.5898 16.0114C40.521 16.0059 39.4664 16.5963 38.5166 17.285C37.6896 17.9108 36.9062 18.5933 36.172 19.3278L27.6325 27.3076L28.1341 27.8684L36.6622 19.8886C37.3747 19.171 38.1351 18.5037 38.9382 17.8915C39.8279 17.237 40.7966 16.7498 41.5775 16.7538C41.9692 16.7546 42.348 16.8952 42.6471 17.1506C43.0805 17.5463 43.4033 18.0501 43.583 18.6115L43.5829 18.6345L43.5828 18.6547C43.9102 19.3116 44.4052 19.8684 45.0167 20.2678C45.5462 20.5939 46.1553 20.7644 46.7755 20.7602C47.6374 20.7333 48.4833 20.5187 49.2555 20.1311C50.3771 19.5761 51.4237 18.8783 52.3698 18.0548C53.1512 17.394 53.6526 16.867 53.7013 16.8184L63.8306 7.26965L63.5786 9.74901L64.3135 9.8247L64.7038 5.94743L60.6937 5.95004Z" fill="#181818"/>
<path d="M23.2002 3.24978L23.0145 39.7305C23.0106 40.4937 23.3071 41.2272 23.8389 41.7696C24.3706 42.312 25.094 42.6189 25.8498 42.6227L67.9671 42.8371C68.7229 42.841 69.4494 42.5415 69.9866 42.0045C70.5238 41.4676 70.8278 40.7371 70.8317 39.9739L71.0174 3.4932C71.0213 2.72998 70.7248 1.99649 70.193 1.4541C69.6613 0.911701 68.938 0.604825 68.1821 0.600977L26.0648 0.386578C25.309 0.382731 24.5825 0.682227 24.0453 1.21918C23.5081 1.75614 23.2041 2.48656 23.2002 3.24978ZM35.6796 42.0972L30.3786 42.0702L30.4083 36.2256L35.7093 36.2526L35.6796 42.0972ZM44.9392 42.1444L39.6353 42.1174L39.7146 26.5403L45.0071 26.5672L44.9392 42.1444ZM48.9064 42.1645L48.9633 30.976L54.2558 31.003L54.1988 42.1915L48.9064 42.1645ZM63.4414 42.2385L58.1546 42.2116L58.2773 18.1108L63.5669 18.1377L63.4414 42.2385ZM69.8002 1.85817C70.0108 2.07321 70.1773 2.32803 70.2904 2.60809C70.4034 2.88814 70.4606 3.18794 70.4588 3.49035L70.2731 39.9711C70.27 40.5817 70.0268 41.166 69.597 41.5956C69.1673 42.0251 68.5861 42.2647 67.9814 42.2617L64.0142 42.2415L64.1384 17.8529C64.1384 17.7774 64.1091 17.7049 64.0567 17.651C64.0305 17.6237 63.9991 17.6019 63.9645 17.5869C63.9298 17.5719 63.8925 17.564 63.8548 17.5636L57.9952 17.5338C57.9197 17.5334 57.847 17.5634 57.7933 17.6171C57.7396 17.6708 57.7092 17.7438 57.7088 17.8201L57.5846 42.2087L54.7574 42.1943L54.8158 30.718C54.8162 30.6417 54.7866 30.5684 54.7334 30.5141C54.6802 30.4599 54.6079 30.4292 54.5323 30.4288L48.6699 30.399C48.5943 30.3986 48.5216 30.4285 48.4679 30.4822C48.4142 30.5359 48.3838 30.609 48.3834 30.6853L48.325 42.1616L45.4978 42.1472L45.5785 26.2824C45.5789 26.2061 45.5493 26.1327 45.4961 26.0785C45.4429 26.0242 45.3706 25.9935 45.295 25.9932L39.4326 25.9633C39.357 25.9629 39.2843 25.9929 39.2306 26.0466C39.1769 26.1003 39.1465 26.1733 39.1461 26.2496L39.0653 42.1145L36.2496 42.1001L36.2808 35.9677C36.2812 35.8914 36.2515 35.8181 36.1983 35.7638C36.1452 35.7096 36.0728 35.6789 35.9972 35.6785L30.1262 35.6486C30.0887 35.6482 30.0515 35.6553 30.0167 35.6694C29.9819 35.6836 29.9502 35.7045 29.9235 35.731C29.8969 35.7578 29.8759 35.7896 29.8615 35.8246C29.8471 35.8596 29.8398 35.8971 29.8398 35.9349L29.8085 42.0788L25.8527 42.0587C25.248 42.0556 24.6693 41.8101 24.2439 41.3762C23.8186 40.9423 23.5813 40.3555 23.5844 39.7449L23.7702 3.25268C23.7733 2.64211 24.0165 2.05777 24.4463 1.6282C24.8761 1.19864 25.4572 0.959042 26.0619 0.96212L68.1792 1.17652C68.4806 1.1763 68.7791 1.23643 69.0573 1.35343C69.3356 1.47044 69.5881 1.64199 69.8002 1.85817Z" fill="#181818"/>
</g>
<path d="M15.0267 13.4658C10.6139 13.473 6.63989 16.1378 4.95803 20.2176C3.27616 24.2974 4.21766 28.9886 7.34346 32.1035C10.4693 35.2184 15.1637 36.1435 19.2376 34.4474C23.3115 32.7513 25.9624 28.7681 25.9542 24.3552L15.0458 24.3742L15.0267 13.4658Z" fill="#BFE7FF" stroke="black" stroke-width="0.5"/>
<path d="M15.0215 12.3745L15.0424 24.3755L27.5889 24.3536C27.5773 17.7256 21.9507 12.3624 15.0215 12.3745Z" fill="#FAE380" stroke="black" stroke-width="0.5"/>
<defs>
<clipPath id="clip0_14_720">
<rect width="47.8179" height="42.2367" fill="white" transform="translate(23.2148 0.37207) rotate(0.291663)"/>
</clipPath>
</defs>
</svg>
